<svg width="1092" height="1096" viewBox="0 0 1092 1096" fill="none" xmlns="http://www.w3.org/2000/svg">
<path fill-rule="evenodd" clip-rule="evenodd" d="M497.811 0.00847585C498.211 -0.0915241 499.211 0.708476 500.011 1.60848C501.111 2.80848 502.011 8.80848 503.211 23.4085C504.411 38.8085 504.611 43.8085 503.711 44.8085C503.011 45.5085 501.811 46.1085 501.011 46.1085C500.211 46.1085 499.011 45.5085 498.411 44.8085C497.811 44.1085 496.811 36.5085 496.111 28.0085C495.511 19.5085 494.711 10.4085 494.511 7.70848C494.111 4.30848 494.411 2.60848 495.611 1.50848C496.411 0.708476 497.411 0.00847585 497.811 0.00847585ZM1086.01 468.108C1088.11 468.008 1090.11 468.608 1091.01 469.508C1092.11 470.808 1092.21 471.608 1091.41 472.808C1090.81 473.808 1087.71 475.008 1084.41 475.708C1081.21 476.309 1067.91 478.508 1055.01 480.408C1042.11 482.408 1028.81 484.408 1025.51 485.008C1022.21 485.508 1013.41 486.908 1006.01 488.008C998.611 489.108 980.611 491.808 966.011 494.008C951.411 496.208 932.611 499.208 924.211 500.508C911.911 502.508 908.711 502.809 907.511 501.708C906.611 501.108 905.911 499.708 906.011 498.708C906.011 497.809 906.311 496.808 906.711 496.508C907.211 496.308 912.711 495.208 919.011 494.008C925.311 492.908 949.811 489.108 973.511 485.508C997.211 481.908 1029.31 476.908 1045.01 474.508C1060.71 472.008 1075.51 469.608 1078.01 469.108C1080.51 468.608 1084.11 468.108 1086.01 468.108ZM119.511 614.108C120.011 614.108 121.011 614.408 121.711 614.808C122.311 615.208 123.011 616.808 123.311 618.508C123.711 621.208 123.411 621.508 121.111 621.708C119.711 621.808 107.511 623.508 94.0109 625.508C80.5109 627.508 54.4109 631.308 36.0109 634.008C10.1109 637.708 2.21094 638.609 1.21094 637.708C0.510944 637.008 -0.0890564 635.708 0.0109436 634.708C0.0109436 633.808 1.01094 632.608 2.21094 632.008C3.51094 631.508 15.5109 629.409 29.0109 627.508C42.5109 625.608 60.9109 622.909 70.0109 621.508C79.1109 620.108 88.5109 618.708 91.0109 618.409C93.5109 618.109 100.711 617.008 107.011 616.008C113.311 615.008 118.911 614.208 119.511 614.108ZM579.911 1013.01C580.211 1013.01 581.311 1013.51 582.211 1014.21C583.711 1015.31 584.411 1020.81 587.011 1052.01C588.711 1072.11 590.011 1090.11 589.811 1092.01C589.611 1094.61 589.011 1095.61 587.511 1095.81C586.411 1096.01 585.011 1095.51 584.311 1094.81C583.611 1094.01 582.311 1083.61 581.011 1069.01C579.911 1055.51 578.411 1038.11 577.711 1030.41C576.711 1018.61 576.711 1016.01 577.911 1014.61C578.611 1013.71 579.511 1013.01 579.911 1013.01ZM637.511 7.00848C638.011 6.90848 639.111 7.60848 639.711 8.50848C640.811 9.70848 640.111 15.4085 636.011 38.7085C633.311 54.6085 628.511 82.3085 625.511 100.508C622.411 118.708 618.311 142.108 616.411 152.508C614.511 162.908 612.411 172.108 611.711 172.808C610.811 173.908 610.011 173.908 608.211 173.108C607.011 172.508 606.011 171.208 606.011 170.208C606.011 169.308 608.011 157.208 610.511 143.508C613.011 129.708 615.411 116.008 616.011 113.008C616.511 110.008 618.611 97.8085 620.611 86.0085C622.511 74.2085 625.911 54.2085 628.111 41.5085C630.311 28.8085 632.511 16.2085 633.211 13.5085C633.811 10.7085 634.811 8.20848 635.411 7.80848C636.011 7.40848 637.011 7.00848 637.511 7.00848ZM363.211 29.1085C364.311 29.6085 365.111 30.2085 365.011 30.3085C365.011 30.4085 367.511 37.7085 370.611 46.5085C373.711 55.3085 379.011 70.8085 382.511 81.0085C386.011 91.2085 399.211 130.408 411.911 168.308C424.611 206.108 435.011 237.708 435.011 238.508C435.011 239.308 434.011 240.308 432.711 240.608C431.511 241.008 429.911 241.008 429.211 240.608C428.611 240.308 427.611 238.508 427.111 236.708C426.611 235.008 413.811 196.808 398.711 152.008C383.511 107.208 369.611 66.0085 367.711 60.5085C365.711 55.0085 362.811 46.8085 361.111 42.2085C359.411 37.7085 357.911 33.1085 357.811 32.0085C357.711 31.0085 358.511 29.7085 359.511 29.1085C360.611 28.5085 362.011 28.5085 363.211 29.1085ZM435.911 47.0085C436.211 47.0085 437.311 47.5085 438.311 48.2085C439.711 49.2085 442.411 60.6085 450.611 101.008C456.411 129.308 461.411 153.808 461.711 155.508C462.211 157.908 461.911 158.808 460.111 159.808C459.011 160.408 457.411 160.808 456.711 160.508C456.111 160.308 455.111 158.808 454.711 157.308C454.211 155.708 449.611 133.608 444.411 108.008C439.111 82.4085 434.311 59.0085 433.711 55.9085C432.711 51.3085 432.711 49.9085 433.911 48.6085C434.611 47.7085 435.511 47.0085 435.911 47.0085ZM566.211 49.0085C567.211 49.0085 568.311 49.8085 568.711 50.8085C569.111 51.7085 568.811 64.0085 568.111 78.0085C567.411 92.0085 566.511 105.108 566.111 107.008C565.511 110.108 565.011 110.508 559.511 110.508L559.711 101.008C559.911 95.8085 560.311 82.3085 560.811 71.1085C561.511 55.2085 562.011 50.5085 563.111 49.9085C563.911 49.4085 565.311 49.0085 566.211 49.0085ZM697.311 49.0085C697.911 48.9085 699.211 49.6085 700.011 50.5085C701.311 52.0085 701.211 53.2085 698.411 62.3085C696.611 67.9085 692.511 81.1085 689.211 91.5085C685.911 101.908 682.011 114.408 680.611 119.308C678.511 126.408 677.611 128.108 675.711 128.608C674.411 128.908 672.911 128.608 672.011 127.608C670.711 126.208 671.311 123.508 677.811 102.808C681.911 90.0085 687.011 73.7085 689.211 66.5085C691.411 59.3085 693.811 52.5085 694.611 51.2085C695.411 50.0085 696.611 49.0085 697.311 49.0085ZM769.511 49.0085C770.311 49.0085 771.711 49.2085 772.511 49.5085C773.311 49.8085 774.011 50.9085 774.011 52.0085C774.011 53.1085 771.711 58.8085 768.911 64.7085C766.111 70.7085 760.911 82.0085 757.311 90.0085C753.711 98.0085 749.411 107.408 747.811 111.008C746.111 114.608 741.011 125.808 736.511 136.008C731.911 146.208 725.011 161.508 721.211 170.008C717.311 178.508 710.111 194.308 705.111 205.008C700.211 215.708 695.411 224.808 694.611 225.208C693.711 225.708 692.311 225.808 691.511 225.508C690.711 225.208 690.011 224.008 690.011 222.708C690.011 221.508 693.211 213.508 697.111 205.008C701.011 196.508 708.911 179.308 714.611 166.708C720.311 154.208 725.011 143.808 725.011 143.508C725.011 143.208 728.611 135.008 733.111 125.208C737.511 115.508 742.111 105.508 743.211 103.008C744.311 100.508 747.611 93.3085 750.511 87.0085C753.411 80.7085 757.511 71.9085 759.511 67.5085C761.611 63.1085 764.311 57.1085 765.611 54.2085C766.911 51.2085 768.611 49.0085 769.511 49.0085ZM503.811 80.0085C504.711 79.9085 506.011 80.5085 506.611 81.2085C507.311 81.9085 508.611 94.2085 509.811 110.008C511.011 125.108 512.711 147.908 513.711 160.708C515.411 182.908 515.411 184.008 513.711 185.708C512.411 187.108 511.611 187.308 510.211 186.408C509.311 185.808 508.411 184.408 508.211 183.408C508.111 182.408 506.211 159.408 504.111 132.508C501.711 102.208 500.611 82.8085 501.211 81.7085C501.711 80.8085 502.811 80.0085 503.811 80.0085ZM236.311 90.0085C238.111 90.0085 241.711 94.9085 255.011 115.208C264.111 129.108 274.111 144.308 277.211 149.008C282.511 157.008 282.711 157.608 281.211 159.308C280.111 160.508 278.811 160.908 277.511 160.608C276.411 160.208 273.511 156.908 271.011 153.208C268.611 149.508 258.811 134.608 249.311 120.008C235.411 98.6085 232.311 93.2085 233.111 91.7085C233.611 90.8085 235.111 90.0085 236.311 90.0085ZM827.011 91.2085C828.711 91.4085 829.611 92.2085 829.711 93.7085C829.911 95.0085 828.911 97.8085 827.511 100.008C826.111 102.208 825.011 104.208 825.011 104.508C825.011 104.808 822.511 108.808 819.511 113.508C816.511 118.208 814.011 122.208 814.011 122.508C814.011 122.808 812.011 126.008 809.711 129.708C807.311 133.508 801.911 141.908 797.711 148.508C793.511 155.108 790.011 161.108 790.011 161.708C790.011 162.408 789.711 163.008 789.211 163.008C788.811 163.008 785.111 168.408 781.011 175.008C776.911 181.608 772.811 187.008 772.011 187.008C771.211 187.008 769.911 186.508 769.211 185.808C768.511 185.108 768.011 183.908 768.011 183.208C768.011 182.608 773.511 173.308 780.111 162.708C786.811 152.208 795.911 137.608 800.311 130.508C804.711 123.308 812.011 111.508 816.411 104.208C823.611 92.3085 824.711 90.9085 827.011 91.2085ZM325.211 112.008C326.611 112.008 330.411 118.908 341.011 140.508C348.711 156.208 355.011 169.608 355.011 170.208C355.111 170.908 354.511 172.008 353.811 172.608C353.111 173.208 351.511 174.008 350.211 174.408C349.011 174.708 348.211 174.708 348.511 174.208C348.711 173.808 342.711 160.808 335.011 145.208C327.311 129.708 320.911 116.408 320.811 115.708C320.711 115.008 321.211 113.908 322.011 113.208C322.811 112.508 324.211 112.008 325.211 112.008ZM560.511 147.008C561.911 147.008 563.311 147.608 563.611 148.208C563.911 148.908 562.911 173.808 561.411 203.508C559.711 237.808 558.311 258.008 557.611 258.808C557.011 259.508 555.711 260.108 554.711 260.008C553.811 260.008 552.611 259.008 552.211 257.808C551.711 256.508 551.911 244.608 552.611 230.508C553.311 216.808 554.411 196.108 555.011 184.508C555.611 172.908 556.311 160.308 556.611 156.508C556.911 152.708 557.311 148.908 557.511 148.308C557.811 147.608 559.111 147.008 560.511 147.008ZM861.711 151.008C862.411 151.008 863.511 151.908 864.011 153.008C864.511 154.108 865.011 155.208 865.011 155.508C865.011 155.808 863.011 158.508 860.511 161.508C857.711 164.908 856.311 167.508 856.711 168.208C857.211 169.008 857.111 169.208 856.511 168.808C856.011 168.408 853.711 170.408 851.511 173.108C849.311 175.908 842.111 184.808 835.611 192.808C829.111 200.908 823.211 208.308 822.611 209.308C822.011 210.208 820.611 211.008 819.511 211.008C818.411 211.108 816.911 210.408 816.211 209.508C815.311 208.308 815.311 207.508 816.211 205.808C816.811 204.508 822.011 197.908 827.611 191.008C833.311 184.108 837.911 178.208 837.911 177.808C838.011 177.308 839.111 175.908 840.511 174.508C842.011 173.008 842.711 171.508 842.311 170.808C841.811 170.008 841.911 169.808 842.511 170.208C843.111 170.608 846.911 166.808 851.011 161.708C855.111 156.608 858.911 152.208 859.511 151.808C860.011 151.408 861.111 151.008 861.711 151.008ZM201.811 155.908C202.611 156.208 207.211 161.008 211.911 166.508C216.611 172.008 221.211 177.408 222.211 178.508C223.111 179.608 232.711 190.908 243.511 203.508C254.411 216.108 265.211 228.808 267.511 231.508C269.911 234.308 274.511 239.808 277.911 243.808C281.311 247.708 284.011 251.408 284.011 252.008C284.011 252.608 283.311 253.708 282.411 254.508C281.611 255.308 280.411 256.008 279.911 256.008C279.411 256.008 277.211 254.108 275.111 251.808C272.911 249.408 264.911 240.108 257.211 231.008C249.511 221.908 232.811 202.408 220.111 187.508C207.411 172.608 196.911 159.708 196.811 158.808C196.711 157.908 197.511 156.708 198.411 156.208C199.411 155.608 200.911 155.508 201.811 155.908ZM932.411 161.008C933.011 161.008 934.111 161.508 934.811 162.208C935.511 162.908 936.011 164.208 936.011 165.008C936.011 165.808 928.511 174.008 919.211 183.308C910.011 192.508 901.811 200.008 901.011 200.008C900.211 200.108 898.911 199.408 898.211 198.508C897.611 197.708 897.211 196.208 897.511 195.308C897.811 194.308 904.311 187.208 912.011 179.508C919.711 171.808 925.711 165.108 925.311 164.508C925.011 163.908 925.111 163.808 925.611 164.208C926.111 164.608 927.611 164.108 928.911 163.008C930.211 161.908 931.811 161.008 932.411 161.008ZM662.511 162.008C664.011 162.008 665.311 162.708 665.611 163.808C666.011 164.708 663.911 172.608 661.011 181.508C658.211 190.308 654.111 202.908 652.011 209.508C649.811 216.108 642.411 240.208 635.511 263.008C628.511 285.808 619.511 315.308 615.511 328.508C611.511 341.708 605.911 359.708 603.211 368.508C600.411 377.308 596.011 391.308 593.411 399.508C590.811 407.808 588.211 415.108 587.611 415.808C587.011 416.508 585.511 417.108 584.211 417.008C583.011 417.008 581.811 416.208 581.511 415.308C581.211 414.308 581.711 411.508 582.511 409.008C583.411 406.508 588.811 389.608 594.511 371.508C600.211 353.408 609.211 324.108 614.511 306.508C619.911 288.908 625.311 270.908 626.711 266.508C628.011 262.108 630.511 254.008 632.111 248.508C633.711 243.008 637.111 232.008 639.611 224.008C642.111 216.008 647.411 199.608 651.211 187.508C655.111 175.408 658.711 164.708 659.211 163.808C659.711 162.808 661.211 162.008 662.511 162.008ZM302.011 190.108C302.311 190.008 303.211 190.508 304.111 191.208C305.011 191.908 311.311 201.108 318.211 211.508C325.111 221.908 331.211 231.508 331.811 232.808C332.611 234.208 333.511 234.708 334.211 234.308C335.078 233.775 335.244 233.942 334.711 234.808C334.311 235.508 336.011 238.908 338.911 243.308C341.611 247.208 348.111 257.308 353.511 265.508C358.811 273.808 363.011 281.108 362.811 281.908C362.611 282.708 361.711 283.808 360.711 284.408C359.211 285.308 358.411 285.008 356.311 282.508C354.911 280.908 349.511 273.008 344.211 265.008C339.011 257.008 326.711 238.208 316.911 223.308C307.011 208.308 298.911 194.908 298.811 193.608C298.711 192.208 299.211 190.908 300.011 190.708C300.811 190.408 301.711 190.108 302.011 190.108ZM467.011 195.008C468.611 195.008 470.011 195.208 470.011 195.508C470.011 195.808 471.611 203.508 473.611 212.808C475.511 222.008 480.711 247.308 485.111 269.008C489.411 290.708 493.011 309.508 493.011 310.808C493.011 312.275 492.244 313.208 490.711 313.608C489.511 313.908 488.011 313.608 487.311 312.808C486.611 312.108 482.511 293.708 478.111 272.008C473.711 250.308 468.511 224.608 466.511 215.008C464.511 205.408 463.211 196.908 463.411 196.308C463.711 195.608 465.311 195.008 467.011 195.008ZM370.711 206.008C372.711 206.008 374.111 208.308 381.611 223.808C386.411 233.508 394.311 249.808 399.211 260.008C404.211 270.208 411.411 285.008 415.211 293.008C419.011 301.008 422.011 308.408 421.811 309.508C421.611 310.808 420.611 311.608 419.011 311.808C416.811 312.108 416.011 311.208 412.111 303.308C409.711 298.508 403.911 286.608 399.211 277.008C394.611 267.408 385.411 248.508 378.911 235.008C372.311 221.508 366.911 209.808 366.811 208.908C366.711 208.008 367.011 207.008 367.511 206.708C368.011 206.308 369.411 206.008 370.711 206.008ZM601.611 209.008C602.411 209.008 603.611 209.608 604.211 210.408C605.311 211.408 604.811 215.908 601.811 233.108C599.811 244.908 597.211 259.408 596.111 265.508C594.911 271.608 592.411 285.308 590.511 296.008C588.511 306.708 586.611 316.808 586.211 318.408C585.811 320.008 584.711 321.808 583.811 322.408C582.411 323.308 581.711 323.108 580.311 321.708C578.611 320.108 578.711 319.008 582.811 296.708C585.211 284.008 589.611 259.608 592.711 242.508C595.711 225.408 598.711 210.908 599.211 210.308C599.811 209.608 600.811 209.008 601.611 209.008ZM748.511 217.008C749.011 217.008 750.111 217.508 750.811 218.208C751.511 218.908 752.011 220.108 752.011 220.808C752.011 221.408 730.011 257.208 703.211 300.308C676.311 343.308 652.611 381.408 650.411 385.008C648.311 388.608 645.511 393.108 644.211 395.008C643.011 396.908 642.211 399.108 642.511 399.808C642.811 400.408 642.511 400.808 642.011 400.508C641.411 400.208 638.511 404.108 635.511 409.008C632.511 413.908 630.011 418.208 630.011 418.508C630.011 418.808 628.011 422.108 625.511 426.008C621.911 431.608 620.511 433.008 618.711 432.808C617.211 432.608 616.411 431.708 616.211 430.008C616.011 428.208 619.511 421.508 628.111 407.508C634.811 396.508 642.411 384.008 645.111 379.808C648.011 375.208 649.711 371.508 649.311 370.808C648.778 369.942 648.944 369.775 649.811 370.308C650.611 370.808 652.011 369.108 654.211 365.308C656.011 362.108 659.211 356.608 661.411 353.008C663.711 349.408 666.011 345.608 666.711 344.508C667.311 343.408 676.311 329.008 686.611 312.508C696.911 296.008 707.711 278.908 710.511 274.508C713.311 270.108 721.211 257.508 728.011 246.508C734.711 235.508 741.411 224.708 742.911 222.508C744.311 220.308 745.911 218.208 746.511 217.808C747.011 217.408 747.911 217.008 748.511 217.008ZM971.011 220.308C972.911 220.508 973.611 221.108 973.711 223.008C973.911 224.908 972.811 226.508 968.511 230.008C965.511 232.508 963.311 234.808 963.511 235.308C963.811 235.708 963.411 235.708 962.711 235.408C962.111 235.108 956.311 238.808 949.911 243.708C943.511 248.508 929.611 259.308 919.111 267.508C908.511 275.808 894.111 287.008 887.211 292.408C880.211 297.808 874.611 302.708 874.711 303.108C874.911 303.608 874.511 303.808 874.011 303.508C873.411 303.208 863.411 310.408 851.711 319.508C840.111 328.608 824.311 340.908 816.611 346.808C809.011 352.708 795.711 363.008 787.111 369.808C778.511 376.608 771.511 382.708 771.511 383.308C771.411 384.008 770.911 384.408 770.211 384.308C769.511 384.108 765.611 386.708 761.511 390.008C756.811 393.708 753.111 396.008 751.511 396.008C750.111 396.008 748.811 395.308 748.511 394.508C748.211 393.708 748.311 392.408 748.711 391.608C749.211 390.809 756.711 384.408 765.511 377.408C774.311 370.408 783.111 363.508 785.011 361.908C786.911 360.408 793.911 355.008 800.511 349.908C807.111 344.808 815.411 338.408 819.011 335.608C822.611 332.908 826.011 330.108 826.711 329.608C827.411 329.008 831.811 325.608 836.511 322.008C841.311 318.408 850.911 311.008 857.911 305.508C865.011 300.008 872.011 294.608 873.511 293.508C875.011 292.408 877.711 290.308 879.411 288.908C881.111 287.508 886.311 283.508 891.011 280.008C895.711 276.408 908.011 266.909 918.511 258.708C928.911 250.508 940.611 241.408 944.511 238.408C948.311 235.408 955.311 230.108 960.011 226.608C965.811 222.208 969.311 220.208 971.011 220.308ZM514.611 221.008C516.111 221.008 517.311 221.808 517.911 223.308C518.411 224.508 520.311 244.608 522.011 268.008C523.711 291.408 525.511 315.708 526.011 322.008C526.611 328.308 528.211 348.808 529.611 367.508C531.011 386.208 532.011 403.508 531.811 406.008C531.611 409.608 531.111 410.608 529.511 410.808C528.411 411.008 527.011 410.508 526.411 409.808C525.711 409.108 524.511 399.108 523.611 387.008C522.711 375.208 519.511 333.708 516.511 294.808C513.511 255.808 511.311 223.308 511.611 222.508C511.911 221.708 513.311 221.008 514.611 221.008ZM870.011 223.008C870.811 223.008 872.111 223.508 872.811 224.208C873.511 224.908 874.011 226.208 874.011 227.008C874.011 227.808 856.311 246.208 834.711 267.808C813.111 289.308 794.811 307.008 794.011 307.008C793.211 307.008 791.911 306.508 791.211 305.808C790.511 305.108 790.111 303.808 790.211 303.008C790.311 302.108 808.011 283.809 829.511 262.208C851.011 240.708 869.211 223.008 870.011 223.008ZM187.911 233.008C188.811 233.008 194.911 237.808 201.411 243.708C208.011 249.708 213.911 254.408 214.711 254.308C215.411 254.108 215.811 254.608 215.411 255.308C215.111 255.908 216.111 257.408 217.711 258.508C219.211 259.608 220.911 260.309 221.511 260.108C222.011 260.008 222.211 260.208 221.711 260.708C221.311 261.108 222.011 262.508 223.211 263.808C224.511 265.008 225.811 266.008 226.211 266.008C226.711 266.008 226.711 265.408 226.311 264.808C226.011 264.008 226.111 263.908 226.611 264.308C227.111 264.808 227.511 265.708 227.511 266.308C227.611 267.008 228.111 267.408 228.811 267.308C229.511 267.108 229.811 267.408 229.511 268.008C229.211 268.608 233.411 272.909 238.711 277.708C244.111 282.508 251.411 289.108 255.011 292.508C258.611 295.808 263.511 300.208 266.011 302.408C268.511 304.508 275.211 310.608 281.011 316.008C286.811 321.408 293.011 326.908 294.711 328.408C296.511 329.808 298.011 331.808 298.011 332.808C298.011 333.708 297.511 335.108 296.811 335.808C296.111 336.408 295.011 337.008 294.311 337.008C293.611 337.008 286.211 330.808 277.911 323.308C269.611 315.708 260.111 307.108 256.711 304.108C253.311 301.208 245.511 294.208 239.511 288.608C233.411 283.008 226.111 276.309 223.211 273.708C220.011 270.809 217.511 269.309 216.711 269.708C215.911 270.242 215.744 270.075 216.211 269.208C216.711 268.508 215.111 266.308 211.911 263.308C209.011 260.608 206.211 258.308 205.611 258.008C204.811 257.708 204.811 258.008 205.511 259.008C206.211 260.108 206.211 260.309 205.211 259.708C204.611 259.309 204.211 258.708 204.511 258.308C204.711 257.808 202.611 255.108 199.711 252.108C195.911 248.208 194.111 247.008 193.011 247.608C192.111 248.208 191.811 248.108 192.211 247.508C192.611 246.908 191.311 244.908 189.411 243.008C187.411 241.108 185.411 238.708 184.911 237.808C184.311 236.608 184.411 235.508 185.111 234.508C185.711 233.708 187.011 233.008 187.911 233.008ZM791.511 238.008C792.011 238.008 793.111 238.508 793.811 239.208C794.511 239.908 795.011 241.208 795.011 242.008C795.011 242.808 789.611 250.308 783.011 258.508C776.511 266.808 771.311 273.808 771.511 274.308C771.811 274.708 771.611 274.908 771.011 274.808C770.511 274.608 767.311 277.908 764.011 282.008C760.711 286.108 757.611 289.908 757.211 290.508C756.811 291.108 751.211 298.008 744.811 306.008C738.311 314.008 733.311 320.808 733.611 321.308C733.811 321.708 733.611 321.908 733.111 321.808C732.611 321.608 726.611 328.608 719.611 337.308C711.711 347.208 707.311 353.508 707.711 354.308C708.211 355.008 708.111 355.208 707.511 354.808C706.911 354.408 704.211 356.908 701.411 360.308C698.611 363.708 695.011 368.208 693.411 370.308C691.211 373.308 689.911 374.108 688.011 373.808C686.411 373.608 685.411 372.808 685.211 371.508C685.011 370.408 686.011 368.008 687.411 366.308C688.811 364.508 690.011 362.608 690.011 362.008C690.011 361.408 690.311 360.908 690.811 360.808C691.211 360.608 693.411 358.308 695.611 355.508C697.911 352.808 708.911 339.008 720.011 325.008C731.211 311.008 740.411 299.008 740.411 298.308C740.511 297.708 740.711 297.408 741.011 297.608C741.311 297.809 743.911 294.909 746.911 291.208C749.911 287.508 754.011 282.508 755.911 280.108C757.911 277.608 763.911 270.208 769.211 263.608C774.511 256.908 778.711 251.208 778.411 250.808C778.211 250.308 778.411 250.108 778.811 250.308C779.211 250.408 781.011 248.908 782.811 247.008C784.511 245.108 785.911 243.208 786.011 242.808C786.011 242.308 787.011 241.108 788.211 240.008C789.511 239.008 790.911 238.008 791.511 238.008ZM106.411 249.008C107.011 249.008 110.411 250.908 114.011 253.308C117.611 255.708 129.011 263.708 139.511 271.008C149.911 278.308 160.111 285.508 162.111 286.908C164.111 288.308 169.911 292.508 175.111 296.108C180.311 299.708 189.011 305.708 194.411 309.608C199.911 313.408 204.711 316.408 205.211 316.308C205.611 316.108 206.011 316.408 206.011 317.008C206.011 317.608 207.811 319.208 210.111 320.808C212.811 322.608 214.011 324.108 213.811 325.408C213.611 326.408 212.711 327.808 211.811 328.408C210.511 329.308 209.211 328.908 205.611 326.508C203.011 324.908 185.611 312.708 166.911 299.508C148.211 286.308 128.811 272.708 123.911 269.308C119.011 265.808 114.811 263.308 114.511 263.808C114.211 264.208 114.011 263.908 114.011 263.308C114.011 262.608 111.511 260.308 108.511 258.308C105.411 256.208 102.911 253.808 102.811 252.908C102.711 252.108 103.211 250.908 104.011 250.208C104.811 249.508 105.911 249.008 106.411 249.008ZM674.411 258.008C675.011 257.908 676.211 258.608 677.011 259.508C678.311 261.008 678.311 261.608 677.111 264.808C676.311 266.908 671.211 278.408 665.811 290.508C660.311 302.608 654.111 316.208 651.911 320.808C649.311 326.408 647.411 329.008 646.211 329.008C645.311 329.108 643.811 328.408 643.011 327.508C641.711 326.008 642.411 323.909 650.211 306.708C655.011 296.108 661.711 281.408 665.011 274.008C668.411 266.608 671.611 259.908 672.211 259.308C672.811 258.608 673.711 258.008 674.411 258.008ZM445.011 274.008C446.111 274.008 447.211 274.308 447.411 274.808C447.711 275.208 453.911 293.308 461.311 315.008C468.711 336.708 479.611 368.208 485.411 385.008C493.911 409.408 495.711 415.808 494.711 416.808C494.111 417.608 492.411 418.008 491.111 417.808C489.011 417.508 488.211 415.908 483.911 403.508C481.311 395.808 475.911 380.308 472.011 369.008C468.011 357.708 459.511 332.508 452.911 313.008C443.911 286.108 441.311 277.108 442.111 275.808C442.611 274.808 443.911 274.008 445.011 274.008ZM308.411 282.008C309.011 282.008 310.011 282.408 310.611 282.808C311.111 283.208 315.811 288.408 320.911 294.508C326.011 300.608 331.211 306.608 332.411 308.008C333.511 309.408 336.711 313.208 339.511 316.508C342.211 319.808 346.311 324.508 348.511 327.008C350.711 329.508 352.811 331.409 353.211 331.208C353.711 331.108 353.911 331.408 353.711 331.808C353.611 332.308 354.611 334.108 356.011 335.808C357.411 337.608 358.911 338.608 359.511 338.208C360.011 337.809 360.211 337.908 359.811 338.508C359.411 339.108 360.611 341.408 362.511 343.808C364.711 346.508 366.411 347.708 367.211 347.308C368.078 346.775 368.244 346.942 367.711 347.808C367.311 348.508 370.011 352.508 375.011 358.508C381.811 366.608 382.811 368.308 382.011 370.008C381.411 371.108 380.211 372.008 379.211 372.008C378.311 372.008 377.011 371.608 376.411 371.208C375.911 370.809 373.111 367.808 370.411 364.508C367.611 361.208 364.211 357.108 362.811 355.508C361.311 353.908 353.911 345.108 346.311 336.108C338.711 327.008 329.611 316.208 326.111 312.108C322.611 307.908 319.411 304.608 318.911 304.808C318.411 304.908 318.111 304.608 318.211 304.108C318.411 303.708 315.511 299.708 311.811 295.408C308.111 291.008 305.011 286.808 304.811 285.908C304.711 285.108 305.211 283.909 306.011 283.208C306.811 282.508 307.911 282.008 308.411 282.008ZM981.011 293.008C981.311 293.008 982.111 293.508 982.811 294.208C983.511 294.909 984.011 296.408 984.011 297.508C984.011 299.008 979.311 302.309 963.811 311.608C952.611 318.309 939.811 325.908 935.211 328.408C930.711 330.908 926.211 333.008 925.211 333.008C924.311 333.008 923.011 332.508 922.311 331.808C921.711 331.108 921.511 329.708 921.811 328.708C922.211 327.708 927.411 324.108 933.511 320.708C939.511 317.409 952.611 309.808 962.511 303.808C972.411 297.908 980.711 293.008 981.011 293.008ZM552.911 294.008C553.811 293.908 555.011 294.508 555.711 295.208C556.611 296.208 556.611 302.608 555.511 323.508C554.811 338.408 553.611 362.208 553.011 376.508C552.311 390.808 551.511 404.008 551.111 405.908C550.811 407.708 549.711 409.808 548.811 410.408C547.411 411.208 546.711 411.208 545.511 410.008C544.111 408.708 544.111 405.908 545.011 386.508C545.611 374.408 546.511 356.208 547.011 346.008C547.511 335.808 548.311 320.508 548.611 312.008C549.011 303.508 549.711 295.908 550.211 295.308C550.811 294.608 552.011 294.008 552.911 294.008ZM85.9109 312.908C86.8109 313.308 96.1109 318.008 106.511 323.408C117.011 328.808 128.611 335.008 132.511 337.008C136.311 339.008 144.411 343.308 150.511 346.508C156.511 349.708 165.811 354.508 171.011 357.308C176.211 360.008 182.711 363.508 185.511 365.008C188.211 366.508 195.011 370.108 200.511 373.008C206.011 375.908 214.111 380.208 218.511 382.508C222.911 384.808 230.111 388.708 234.511 391.008C238.911 393.408 248.611 398.608 256.011 402.508C264.011 406.808 269.611 410.408 269.711 411.408C269.911 412.308 269.411 413.708 268.711 414.608C268.111 415.508 266.811 416.008 266.011 415.808C265.211 415.608 251.411 408.508 235.511 400.008C219.511 391.608 198.811 380.608 189.511 375.508C180.111 370.508 170.211 365.208 167.511 363.808C164.711 362.408 150.111 354.708 135.011 346.808C119.911 338.808 101.511 329.208 94.2109 325.408C82.5109 319.308 80.9109 318.208 80.7109 315.808C80.6109 313.908 81.0109 313.008 82.4109 312.808C83.4109 312.608 85.0109 312.608 85.9109 312.908ZM383.411 314.008C384.011 313.908 385.211 314.708 386.211 315.708C387.111 316.708 391.511 323.108 396.111 330.008C400.611 336.908 412.811 355.808 423.311 372.008C433.711 388.208 446.711 408.108 452.111 416.308C460.411 428.608 461.811 431.308 461.011 433.008C460.411 434.108 459.211 435.008 458.211 435.008C457.311 435.108 455.811 434.308 454.911 433.308C453.911 432.308 449.011 425.208 443.911 417.508C438.811 409.808 434.111 402.608 433.411 401.508C432.811 400.408 429.011 394.308 424.911 388.008C420.811 381.708 410.411 365.808 401.911 352.808C393.111 339.208 386.111 329.408 385.511 329.808C384.911 330.208 384.811 330.008 385.211 329.208C385.711 328.508 385.011 326.808 383.511 325.008C382.111 323.408 380.811 320.908 380.511 319.508C380.211 318.108 380.511 316.308 381.111 315.508C381.711 314.708 382.711 314.008 383.411 314.008ZM761.211 331.008C761.711 331.008 762.911 331.508 764.011 332.008C765.111 332.608 766.011 333.608 766.011 334.308C766.111 334.908 739.811 362.008 707.811 394.308C675.711 426.708 648.311 453.809 646.711 454.608C645.211 455.408 644.211 455.508 644.511 455.008C644.811 454.508 644.511 453.808 644.011 453.508C643.411 453.208 643.011 452.208 643.011 451.308C643.011 450.308 668.411 423.909 701.711 390.208C734.111 357.608 760.811 331.008 761.211 331.008ZM1050.01 334.308C1051.81 334.408 1052.61 335.208 1052.81 337.008C1053.11 339.308 1052.11 340.008 1039.31 345.908C1031.71 349.408 1021.71 353.809 1017.01 355.708C1012.31 357.608 1007.41 359.008 1006.01 358.808C1004.11 358.608 1003.51 357.908 1003.51 356.008C1003.51 354.408 1004.41 353.108 1006.01 352.308C1007.41 351.608 1014.81 348.309 1022.51 345.108C1030.21 341.809 1039.01 338.008 1042.01 336.608C1045.01 335.208 1048.61 334.208 1050.01 334.308ZM438.211 344.008C438.711 344.008 439.511 344.608 440.111 345.308C440.611 345.908 449.411 363.408 459.611 384.008C469.711 404.608 478.111 422.008 478.111 422.508C478.111 423.008 477.411 424.108 476.511 424.808C475.711 425.408 474.211 425.808 473.211 425.508C472.111 425.208 467.911 417.708 461.711 405.008C456.411 394.008 451.511 385.208 451.011 385.508C450.411 385.808 450.211 385.408 450.511 384.808C450.811 384.108 447.211 375.708 442.511 366.308C437.811 356.808 433.911 348.308 433.811 347.508C433.711 346.808 434.511 345.608 435.611 345.108C436.611 344.508 437.811 344.008 438.211 344.008ZM247.811 347.508C249.311 348.208 255.011 352.008 260.511 355.808C266.011 359.708 276.111 366.809 283.011 371.608C289.911 376.408 301.511 384.708 308.811 389.908C316.211 395.208 322.911 400.008 323.811 400.508C324.711 401.108 327.711 403.108 330.511 405.108C333.211 407.108 341.111 412.608 348.011 417.508C354.911 422.308 360.811 426.808 361.211 427.408C361.611 428.008 362.011 429.308 362.011 430.308C362.011 431.208 361.211 432.408 360.211 432.908C358.911 433.708 354.811 431.308 340.011 421.008C329.811 413.908 321.211 408.308 320.711 408.508C320.311 408.808 320.111 408.608 320.211 408.008C320.411 407.508 319.311 406.208 317.811 405.308C316.311 404.308 308.211 398.608 299.811 392.608C291.411 386.708 283.411 380.908 282.011 379.908C280.611 379.008 275.211 375.208 270.011 371.608C264.811 368.008 256.411 362.208 251.511 358.708C246.311 355.108 242.411 351.608 242.211 350.508C242.011 349.408 242.611 348.008 243.511 347.308C244.811 346.308 245.711 346.408 247.811 347.508ZM497.811 348.008C498.211 348.008 499.111 348.408 499.811 348.808C500.511 349.208 503.811 362.808 507.611 380.508C513.811 409.908 514.011 411.608 512.311 412.808C511.311 413.508 510.311 414.008 510.011 414.008C509.711 414.008 508.911 413.608 508.211 413.208C507.411 412.809 504.311 400.308 500.511 382.508C496.911 366.008 494.011 352.208 494.011 351.808C493.911 351.408 494.611 350.408 495.511 349.608C496.411 348.708 497.411 348.008 497.811 348.008ZM887.911 348.308C888.711 348.408 889.711 349.208 890.311 350.008C890.811 350.808 891.111 352.208 890.811 353.008C890.511 353.808 883.111 358.708 874.411 363.908C865.711 369.008 848.611 379.108 836.511 386.308C824.411 393.508 801.211 407.308 785.011 417.008C768.811 426.708 748.311 438.908 739.511 444.108C730.711 449.408 718.611 456.508 712.511 460.108C706.511 463.608 700.311 467.208 698.911 468.008C697.411 468.808 692.411 471.808 687.611 474.508C681.711 477.908 679.411 479.808 680.211 480.308C681.078 480.908 680.911 481.008 679.711 480.608C678.811 480.309 676.411 480.908 674.511 482.008C672.611 483.108 670.011 483.908 668.711 483.808C667.211 483.608 666.411 482.708 666.211 481.008C665.911 478.908 666.911 477.908 672.711 474.608C676.411 472.408 691.411 463.608 706.011 455.108C720.611 446.608 746.411 431.309 763.511 421.108C780.511 410.908 794.911 402.308 795.511 402.008C796.011 401.708 806.611 395.508 819.011 388.108C831.411 380.708 850.011 369.608 860.511 363.508C870.911 357.308 881.111 351.309 883.011 350.208C884.911 349.008 887.111 348.208 887.911 348.308ZM576.311 357.508C576.911 357.708 577.811 358.508 578.111 359.208C578.511 359.909 577.911 365.208 576.911 371.008C575.811 376.808 574.311 386.008 573.511 391.508C572.711 397.008 571.411 403.908 570.811 406.908C570.011 409.908 568.811 412.508 568.011 412.808C567.211 413.008 565.511 412.608 564.311 411.908C563.111 411.108 562.311 410.308 562.511 410.008C562.711 409.708 564.711 398.508 567.011 385.008C570.311 365.008 571.411 360.208 573.011 358.808C574.111 357.908 575.611 357.308 576.311 357.508ZM326.411 359.008C327.611 359.108 332.111 362.408 336.811 366.808C341.411 371.008 347.711 376.708 350.811 379.408C354.011 382.108 362.111 389.508 368.911 395.908C375.711 402.308 382.711 408.908 384.411 410.508C386.211 412.208 393.011 418.508 399.511 424.508C406.111 430.508 415.111 438.908 419.611 443.008C424.111 447.108 428.911 451.308 430.411 452.308C431.811 453.208 433.011 454.808 433.011 455.808C433.111 456.708 432.411 458.108 431.511 458.808C430.311 459.808 429.411 459.708 426.711 458.508C425.011 457.708 421.911 455.508 420.011 453.708C418.111 451.909 407.011 441.608 395.511 430.808C383.911 419.908 374.111 411.408 373.611 411.808C373.111 412.208 373.011 411.908 373.311 411.308C373.711 410.608 373.311 409.408 372.511 408.808C371.611 408.108 370.911 407.708 371.011 408.008C371.011 408.308 367.511 405.108 363.211 401.008C358.911 396.908 351.911 390.408 347.611 386.508C343.311 382.608 338.111 377.908 336.011 376.008C334.011 374.108 330.211 370.708 327.611 368.508C325.111 366.308 322.911 363.608 322.811 362.408C322.711 361.308 323.011 360.008 323.511 359.708C324.011 359.309 325.311 359.008 326.411 359.008ZM628.411 361.208C630.111 361.409 630.511 362.208 630.411 365.008C630.311 366.908 628.211 373.208 625.611 379.008C623.011 384.808 619.811 392.008 618.411 395.008C617.011 398.008 613.511 405.708 610.611 412.008C606.111 421.808 605.011 423.508 603.011 423.508C601.811 423.508 600.211 422.808 599.611 421.808C598.711 420.508 600.211 416.508 607.211 401.608C612.111 391.408 616.011 382.808 616.011 382.508C616.011 382.208 617.911 377.808 620.111 372.808C622.411 367.708 624.711 362.909 625.311 362.208C625.911 361.508 627.311 361.008 628.411 361.208ZM33.8109 363.008C34.2109 363.008 37.6109 364.108 41.5109 365.408C45.3109 366.808 53.7109 369.808 60.0109 372.308C66.3109 374.708 72.5109 377.208 73.7109 377.908C75.0109 378.508 76.0109 379.908 76.0109 381.008C76.0109 382.208 75.1109 383.308 73.7109 383.808C72.0109 384.408 66.9109 382.908 52.5109 377.308C42.0109 373.308 32.9109 369.508 32.2109 368.808C31.1109 367.808 31.1109 367.008 31.9109 365.308C32.6109 364.008 33.4109 363.008 33.8109 363.008ZM966.211 370.008C968.011 370.008 969.211 370.608 969.711 371.808C970.011 372.708 969.811 374.208 969.311 375.008C968.711 375.808 965.611 377.508 962.411 378.808C959.111 380.108 951.311 383.308 945.011 386.008C938.711 388.708 928.311 393.208 922.011 396.108C915.711 398.908 908.011 402.308 905.011 403.508C902.011 404.808 893.011 408.808 885.011 412.508C877.011 416.208 859.511 423.909 846.011 429.708C832.511 435.409 820.611 440.008 819.511 439.808C818.111 439.608 817.411 438.608 817.211 436.808C817.111 434.608 817.611 433.808 819.711 432.908C821.311 432.308 830.811 428.208 841.011 423.808C851.211 419.408 862.311 414.508 865.711 412.908C869.211 411.308 872.211 410.008 872.511 410.008C872.811 410.008 876.311 408.508 880.211 406.608C884.211 404.809 893.811 400.508 901.511 397.108C909.211 393.708 916.811 390.309 918.511 389.608C920.111 388.809 923.111 387.508 925.011 386.708C926.911 385.909 931.011 384.108 934.011 382.708C937.011 381.309 944.911 377.908 951.511 375.108C958.111 372.408 964.711 370.108 966.211 370.008ZM111.911 392.008C112.311 392.008 128.211 397.908 147.511 405.108C166.711 412.408 183.711 418.908 185.211 419.608C186.811 420.408 188.011 421.808 188.011 422.808C188.111 423.708 187.411 425.108 186.511 425.808C185.311 426.808 179.011 424.808 149.711 413.908C130.411 406.708 113.311 400.108 111.711 399.408C110.211 398.608 108.911 397.208 108.811 396.208C108.711 395.208 109.211 393.909 110.011 393.208C110.811 392.508 111.611 392.008 111.911 392.008ZM407.911 398.208C408.711 398.409 417.611 408.008 427.711 419.508C442.011 435.908 445.911 441.008 445.711 443.008C445.511 445.008 445.011 445.508 442.911 445.508C440.711 445.508 438.011 443.008 428.511 432.008C422.111 424.608 415.411 416.908 413.611 415.008C411.911 413.108 409.011 409.708 407.211 407.508C405.411 405.308 403.911 402.808 403.811 402.008C403.711 401.108 404.211 399.809 405.011 399.208C405.811 398.508 407.111 398.108 407.911 398.208ZM661.511 402.208C662.811 402.409 663.611 403.408 663.811 405.008C664.011 406.908 661.511 410.708 653.711 420.508C647.911 427.608 641.211 435.808 638.711 438.508C634.811 442.708 633.911 443.308 632.311 442.408C631.311 441.808 630.411 440.408 630.211 439.408C630.111 438.308 632.111 435.008 635.111 431.508C638.011 428.208 644.111 420.508 648.811 414.508C653.611 408.508 657.911 403.208 658.511 402.708C659.011 402.309 660.411 402.108 661.511 402.208ZM1037.21 410.108C1038.91 410.008 1040.41 410.708 1041.01 411.808C1041.61 412.908 1041.51 414.108 1040.71 415.208C1040.01 416.309 1034.41 418.408 1026.51 420.608C1019.31 422.608 1009.21 425.408 1004.01 427.008C998.811 428.508 981.811 433.608 966.311 438.208C941.111 445.608 938.011 446.308 936.511 445.008C935.611 444.208 935.011 442.608 935.211 441.508C935.411 440.008 937.211 439.008 942.511 437.308C946.311 436.108 958.711 432.408 970.011 429.108C981.311 425.908 1000.41 420.309 1012.51 416.708C1024.61 413.108 1035.71 410.208 1037.21 410.108ZM716.211 416.008C716.711 416.008 717.711 416.208 718.511 416.508C719.411 416.808 720.011 418.208 720.011 419.808C720.011 422.108 717.811 424.208 704.311 434.508C695.611 441.108 683.611 450.508 677.511 455.308C671.511 460.108 664.811 465.208 662.711 466.508C659.811 468.508 658.611 468.808 657.011 468.008C655.911 467.508 655.011 466.208 655.011 465.308C654.911 464.208 660.211 459.408 669.011 452.508C676.811 446.508 687.811 437.908 693.311 433.508C698.911 429.108 706.211 423.408 709.511 420.808C712.811 418.208 715.811 416.108 716.211 416.008ZM303.911 429.008C304.811 428.908 315.211 434.008 327.011 440.308C338.811 446.508 354.111 454.608 361.011 458.208C367.911 461.809 380.511 468.408 389.011 472.908C397.511 477.308 405.611 481.608 407.011 482.408C408.411 483.208 409.911 484.508 410.411 485.208C410.911 485.909 411.011 487.408 410.611 488.508C410.011 490.208 409.411 490.408 406.711 489.808C404.911 489.508 399.911 487.208 395.511 484.808C391.111 482.308 379.511 476.208 369.711 471.208C360.011 466.108 348.711 460.309 344.711 458.108C340.811 456.008 333.011 451.908 327.511 449.008C322.011 446.108 313.911 441.708 309.511 439.408C305.111 437.008 301.211 434.408 300.711 433.508C300.311 432.708 300.511 431.308 301.111 430.508C301.711 429.708 303.011 429.008 303.911 429.008ZM224.911 435.008C225.811 435.008 236.611 438.808 249.011 443.508C261.411 448.208 301.111 463.208 337.311 476.808C402.411 501.308 403.011 501.508 403.011 504.308C403.011 506.008 402.411 507.208 401.211 507.508C400.311 507.808 368.411 496.309 330.511 482.108C292.511 467.809 252.811 452.908 242.111 448.808C231.411 444.808 222.211 440.808 221.611 439.808C220.811 438.608 220.811 437.809 221.911 436.608C222.611 435.708 224.011 435.008 224.911 435.008ZM60.0109 439.008C60.5109 439.008 78.2109 443.208 99.2109 448.408C120.311 453.608 141.011 458.508 145.211 459.408C151.711 460.708 153.111 461.408 153.611 463.308C154.011 464.508 154.011 466.108 153.611 466.808C153.311 467.408 151.911 468.008 150.511 468.008C149.111 468.008 128.811 463.208 105.211 457.408C81.7109 451.608 61.7109 446.809 60.7109 446.708C59.7109 446.608 58.6109 445.608 58.3109 444.508C58.0109 443.408 58.0109 441.708 58.4109 440.808C58.7109 439.808 59.4109 439.008 60.0109 439.008ZM782.211 450.108C783.311 450.608 784.111 451.808 784.111 452.808C784.111 453.708 783.511 455.008 782.811 455.708C782.111 456.309 769.811 461.708 755.511 467.808C741.211 473.808 718.411 483.708 704.711 489.908C691.111 496.008 679.111 501.008 678.011 501.008C676.911 501.008 675.511 500.108 675.011 499.008C674.311 497.608 674.411 496.508 675.211 495.408C675.911 494.608 679.611 492.608 683.511 491.008C687.311 489.408 698.111 484.708 707.511 480.408C716.811 476.208 737.111 467.508 752.411 461.008C774.111 451.808 780.711 449.408 782.211 450.108ZM393.311 451.008C395.111 451.408 401.211 455.008 407.011 459.008C412.811 462.908 418.311 466.908 419.311 467.908C420.311 468.808 421.011 470.408 420.811 471.508C420.611 472.808 419.611 473.608 418.011 473.808C416.611 473.908 414.511 473.408 413.211 472.508C412.011 471.708 411.011 471.308 411.011 471.808C411.111 472.208 410.311 471.508 409.311 470.408C408.311 469.208 404.111 466.008 400.011 463.208C395.911 460.508 391.911 457.608 391.311 456.908C390.611 456.108 390.111 454.308 390.111 452.908C390.111 450.508 390.411 450.408 393.311 451.008ZM896.011 450.108C896.811 450.108 898.111 450.408 898.811 450.808C899.511 451.208 900.011 452.608 899.811 454.008C899.511 456.108 898.611 456.708 892.511 458.308C888.611 459.408 872.711 464.008 857.011 468.608C841.311 473.208 815.911 480.808 800.511 485.508C785.111 490.108 771.811 494.008 771.011 494.008C770.211 494.108 768.911 493.408 768.211 492.508C767.611 491.708 767.211 490.208 767.511 489.308C767.811 487.908 772.411 486.208 785.711 482.308C795.511 479.408 807.811 475.708 813.011 474.108C818.211 472.408 828.311 469.309 835.511 467.108C842.611 464.908 857.011 460.708 867.511 457.708C877.911 454.708 888.311 451.809 890.511 451.208C892.711 450.708 895.211 450.208 896.011 450.108ZM191.011 471.008C192.111 471.008 199.211 472.408 206.711 474.108C214.311 475.809 236.011 480.908 255.011 485.508C274.011 490.108 297.611 495.708 307.511 498.008C317.411 500.308 325.811 502.309 326.211 502.608C326.711 502.809 327.011 503.808 327.011 504.808C327.111 505.708 326.411 507.108 325.511 507.808C324.311 508.808 321.811 508.508 312.211 506.508C305.811 505.208 280.911 499.409 257.011 493.708C233.111 487.909 207.911 481.908 201.011 480.308C190.511 477.908 188.411 477.108 188.211 475.508C188.011 474.408 188.111 472.908 188.411 472.308C188.711 471.608 189.911 471.008 191.011 471.008ZM19.6109 497.108C22.9109 497.508 30.7109 498.308 37.0109 498.908C43.3109 499.408 49.3109 500.208 50.3109 500.708C51.5776 501.242 52.0776 502.342 51.8109 504.008C51.6109 506.108 50.9109 506.608 48.0109 506.808C46.1109 507.008 37.9109 506.408 29.7109 505.608C21.6109 504.708 14.1109 503.508 13.0109 503.008C11.9109 502.508 11.0109 501.408 10.9109 500.608C10.9109 499.809 11.5109 498.508 12.3109 497.708C13.4109 496.608 15.1109 496.508 19.6109 497.108ZM729.511 499.308C732.011 499.508 732.511 500.008 732.711 502.308C733.011 504.908 732.611 505.108 725.711 507.108C721.811 508.309 712.011 511.208 704.011 513.708C696.011 516.109 687.711 518.208 685.511 518.308C681.911 518.508 681.511 518.208 681.211 516.008C681.011 514.608 681.311 513.208 681.711 512.808C682.111 512.408 689.511 510.008 698.011 507.508C706.511 505.008 716.411 502.108 720.011 501.008C723.611 500.008 727.811 499.208 729.511 499.308ZM866.711 502.108C868.411 502.008 869.211 502.708 869.611 504.808C870.011 506.508 869.711 507.908 868.811 508.608C868.111 509.208 862.511 510.408 856.511 511.308C850.411 512.208 835.111 514.608 822.511 516.508C809.811 518.409 792.311 521.208 783.511 522.608C774.711 524.008 759.211 526.409 749.011 528.008C738.811 529.708 721.711 532.409 711.011 534.008C700.311 535.708 690.111 537.008 688.511 536.808C686.411 536.608 685.411 535.909 685.211 534.508C685.011 533.409 685.511 532.008 686.211 531.308C686.911 530.708 722.611 524.708 765.511 518.008C808.411 511.308 848.211 505.008 854.011 504.008C859.811 503.008 865.511 502.208 866.711 502.108ZM128.311 508.708C149.911 511.008 182.611 514.508 201.011 516.508C219.411 518.409 247.111 521.409 262.511 523.008C277.911 524.708 298.811 527.008 309.011 528.108C319.211 529.108 333.311 530.708 340.511 531.508C347.611 532.308 362.311 533.908 373.011 535.108C383.711 536.308 393.111 537.708 393.811 538.409C394.611 539.008 394.911 540.408 394.611 541.808C394.111 543.608 393.311 544.008 390.011 544.008C387.811 544.008 365.411 541.808 340.211 539.008C315.111 536.308 292.511 533.808 290.011 533.508C287.511 533.208 266.611 531.008 243.511 528.508C220.411 526.008 192.911 523.108 182.511 522.008C172.011 520.909 146.611 518.208 126.011 515.909C105.111 513.609 87.9109 511.309 87.2109 510.608C86.5109 510.008 85.9109 508.708 85.8109 507.808C85.7109 506.908 86.4109 505.708 87.4109 505.308C88.4109 504.808 104.811 506.108 128.311 508.708ZM364.911 511.408C365.811 511.708 372.811 513.308 380.511 515.008C388.211 516.808 395.311 518.608 396.211 519.108C397.211 519.608 398.011 520.909 398.011 522.008C398.011 523.108 397.111 524.508 396.011 525.008C394.611 525.708 392.011 525.508 386.711 524.108C382.811 523.008 375.911 521.409 371.511 520.409C367.111 519.508 362.911 518.208 362.211 517.608C361.511 517.008 360.811 515.808 360.811 515.008C360.711 514.108 361.211 512.909 362.011 512.208C362.711 511.508 364.111 511.208 364.911 511.408ZM1067.01 538.108C1076.01 538.008 1078.81 538.208 1080.01 539.409C1081.11 540.609 1081.21 541.309 1080.21 542.909C1079.11 544.809 1077.81 545.108 1067.71 545.508C1061.61 545.808 1043.91 546.108 1000.51 546.508L1000.21 544.008C1000.01 542.608 1000.41 541.008 1001.01 540.508C1001.61 539.909 1013.31 539.309 1028.81 538.909C1043.51 538.609 1060.71 538.208 1067.01 538.108ZM942.011 541.208C956.911 541.008 961.811 541.208 962.811 542.208C963.511 542.909 964.111 544.308 964.011 545.308C964.011 546.208 963.111 547.508 962.011 548.008C960.811 548.608 950.311 549.008 936.711 549.008C924.011 549.008 892.611 549.708 867.011 550.508C841.411 551.308 813.311 552.008 788.511 552.508L788.211 550.008C788.011 548.608 788.411 547.008 789.211 546.409C790.111 545.609 811.811 544.708 856.511 543.409C892.811 542.309 931.311 541.409 942.011 541.208ZM750.511 547.508V550.508C750.511 553.508 750.411 553.508 744.011 554.108C740.411 554.508 726.211 554.909 687.511 555.508L687.211 552.808C687.111 551.208 687.611 549.808 688.211 549.508C688.911 549.208 698.311 548.608 709.011 548.108C719.711 547.608 733.411 547.308 750.511 547.508ZM372.511 556.208C388.611 555.909 391.711 556.108 392.711 557.508C393.411 558.308 393.811 559.909 393.511 561.008C393.111 562.608 392.211 563.008 388.711 563.008C386.411 563.008 369.511 563.508 351.211 564.008C333.011 564.608 317.311 564.808 316.511 564.508C315.611 564.208 315.011 562.808 315.011 561.008C315.011 559.409 315.111 557.908 315.211 557.808C315.411 557.708 324.011 557.308 334.511 557.008C344.911 556.708 362.011 556.308 372.511 556.208ZM245.011 558.108C274.211 557.908 278.711 558.108 279.711 559.508C280.411 560.308 280.811 561.909 280.511 563.008C280.011 564.909 279.211 565.008 261.711 565.008C251.711 565.008 225.911 565.409 204.511 566.008C183.011 566.508 159.111 567.208 151.211 567.508C139.411 567.909 136.711 567.708 135.511 566.508C134.511 565.508 134.311 564.309 134.711 562.909C135.211 561.809 136.411 560.708 137.511 560.508C138.611 560.208 155.711 559.708 175.511 559.208C195.311 558.708 226.611 558.208 245.011 558.108ZM90.7109 561.208C94.2109 561.109 97.7109 561.208 98.5109 561.508C99.3109 561.808 100.011 563.108 100.011 564.508C100.011 565.909 99.2109 567.409 98.2109 567.909C97.3109 568.409 83.1109 568.908 66.6109 569.108C39.0109 569.508 36.6109 569.408 35.6109 567.808C34.8109 566.508 34.8109 565.508 35.6109 564.308C36.6109 562.708 38.8109 562.508 54.6109 562.208C64.4109 562.109 75.2109 561.909 78.5109 561.708C81.8109 561.508 87.3109 561.308 90.7109 561.208ZM693.411 568.308C696.811 568.608 719.711 570.909 744.511 573.409C769.211 575.909 799.211 578.808 811.011 580.008C822.811 581.108 844.611 583.108 859.511 584.508C874.311 585.909 895.911 588.008 907.511 589.108C919.211 590.208 929.111 591.708 929.811 592.308C930.911 593.208 930.911 594.008 930.111 595.808C929.311 597.408 928.111 598.008 925.711 598.008C924.011 598.008 913.311 597.108 902.011 596.008C890.711 594.909 859.911 592.008 833.511 589.508C807.111 587.008 776.011 584.108 764.511 583.008C752.911 581.808 730.911 579.609 715.511 577.909C700.111 576.309 687.111 574.609 686.711 574.208C686.211 573.808 686.211 572.208 686.611 570.608C687.311 567.808 687.411 567.708 693.411 568.308ZM391.011 575.308C393.911 575.508 394.511 575.909 394.811 578.008C395.011 579.409 394.711 580.808 394.311 581.208C393.911 581.708 379.511 584.008 362.511 586.508C345.411 588.909 311.511 593.809 287.011 597.409C262.511 601.008 225.411 606.409 204.511 609.508C183.611 612.608 164.911 615.308 163.011 615.608C160.511 616.108 159.211 615.808 158.211 614.608C157.611 613.708 157.111 612.208 157.211 611.308C157.411 610.308 158.611 609.208 160.011 608.808C161.411 608.308 203.011 602.109 252.511 594.909C302.011 587.708 352.611 580.308 365.011 578.508C377.411 576.708 389.111 575.308 391.011 575.308ZM689.811 587.108C691.911 587.508 707.411 591.108 724.511 595.008C741.511 598.909 766.311 604.508 779.511 607.608C792.711 610.608 811.111 614.909 820.511 617.008C829.811 619.208 847.811 623.208 860.511 626.008C873.111 628.808 884.311 631.308 885.211 631.508C886.311 631.808 887.011 632.908 887.011 634.308C887.011 635.508 886.611 637.108 886.211 637.808C885.611 638.908 882.111 638.408 867.511 635.108C857.611 632.908 839.411 628.808 827.011 626.008C814.611 623.208 794.811 618.708 783.011 616.008C771.211 613.308 751.811 608.808 740.011 606.108C728.211 603.408 711.111 599.508 702.011 597.508C692.911 595.508 684.911 593.308 684.211 592.708C683.511 592.008 682.911 590.708 682.811 589.808C682.711 588.908 683.511 587.708 684.411 587.208C685.411 586.708 687.811 586.608 689.811 587.108ZM394.711 593.108C394.911 593.008 395.911 593.508 397.011 594.008C398.111 594.508 399.011 595.808 399.011 596.808C399.111 597.708 398.511 599.008 397.811 599.608C397.111 600.208 391.311 602.109 385.011 603.909C378.711 605.708 370.111 608.308 366.011 609.608C361.911 610.908 353.111 613.308 346.511 615.008C339.911 616.708 333.511 618.008 332.211 618.008C331.011 618.008 329.611 617.208 329.111 616.308C328.511 615.208 328.511 613.808 329.111 612.808C329.611 611.808 330.611 611.008 331.211 611.008C331.911 611.008 339.911 609.008 349.011 606.508C358.111 604.108 372.011 600.108 380.011 597.608C388.011 595.208 394.611 593.208 394.711 593.108ZM969.411 594.808C970.011 595.108 974.511 595.708 979.511 596.108C984.411 596.608 995.011 597.608 1003.01 598.508C1011.01 599.409 1024.51 600.708 1033.01 601.508C1041.51 602.308 1049.51 603.008 1050.71 603.008C1052.01 603.008 1053.41 603.909 1054.01 605.008C1054.71 606.409 1054.61 607.508 1053.71 608.508C1052.91 609.608 1050.91 610.108 1047.51 610.008C1044.71 610.008 1033.71 609.108 1023.01 608.008C1012.31 606.909 995.111 605.108 984.711 604.008C974.411 602.909 965.511 601.808 965.011 601.508C964.411 601.208 963.911 599.909 963.811 598.508C963.711 596.608 964.311 595.708 966.011 595.108C967.311 594.608 968.811 594.508 969.411 594.808ZM680.811 605.008C681.711 605.008 690.111 607.609 699.511 610.909C708.811 614.109 720.111 618.208 724.511 619.808C728.911 621.508 742.811 626.708 755.511 631.409C768.111 636.208 779.111 640.608 779.811 641.308C780.911 642.208 780.911 643.008 780.111 644.808C779.511 646.008 778.411 647.008 777.711 647.008C777.111 647.008 766.411 643.308 754.011 638.608C741.611 634.008 719.811 626.108 705.511 621.008C691.211 615.909 679.011 611.008 678.311 610.108C677.411 609.008 677.411 608.008 678.111 606.808C678.611 605.808 679.811 605.008 680.811 605.008ZM401.511 611.008C402.011 611.008 403.011 611.408 403.611 611.808C404.211 612.208 405.011 613.308 405.311 614.308C405.811 615.408 405.411 616.508 404.211 617.308C403.311 618.108 396.911 621.008 390.011 623.708C383.111 626.508 366.211 633.508 352.511 639.308C338.711 645.108 320.511 652.808 312.011 656.508C303.511 660.108 291.111 665.309 284.511 667.909C277.911 670.609 271.611 672.708 270.511 672.608C268.811 672.608 268.611 672.008 269.011 669.308C269.311 667.508 269.911 665.808 270.511 665.608C271.011 665.408 277.811 662.608 285.511 659.508C293.211 656.409 308.511 650.008 319.511 645.308C330.511 640.708 345.111 634.409 352.011 631.508C358.911 628.608 371.211 623.409 379.511 620.008C387.711 616.608 395.811 613.208 397.511 612.508C399.111 611.708 400.911 611.008 401.511 611.008ZM292.711 622.108C294.411 622.008 295.111 622.708 295.611 624.808C295.911 626.308 295.811 627.808 295.311 628.308C294.911 628.708 292.011 629.609 289.011 630.409C286.011 631.208 276.711 633.708 268.511 636.008C260.211 638.208 249.211 641.409 244.011 642.909C238.811 644.508 225.911 648.309 215.511 651.409C205.011 654.409 186.111 659.708 173.511 663.008C160.811 666.409 146.211 670.308 141.011 671.708C135.811 673.008 123.411 676.409 113.511 679.208C103.611 681.909 92.1109 685.108 88.0109 686.308C83.9109 687.408 78.9109 688.409 77.0109 688.409C73.7109 688.508 73.5109 688.308 74.0109 685.608C74.4109 682.908 75.1109 682.408 82.0109 680.308C86.1109 679.008 99.6109 675.208 112.011 671.909C124.411 668.609 138.311 664.808 143.011 663.508C147.711 662.208 161.211 658.608 173.011 655.508C184.811 652.308 200.611 648.008 208.011 645.808C215.411 643.608 236.111 637.608 254.011 632.508C271.911 627.409 287.411 623.008 288.511 622.708C289.611 622.508 291.511 622.208 292.711 622.108ZM674.011 622.008C674.811 622.008 677.511 623.208 680.011 624.608C682.511 626.008 694.411 632.308 706.511 638.508C718.611 644.808 739.111 655.308 752.011 662.008C764.911 668.608 778.811 675.708 782.811 677.808C788.411 680.608 790.011 681.909 789.811 683.409C789.611 684.409 788.711 685.809 787.711 686.409C786.211 687.309 781.711 685.308 761.711 675.208C748.411 668.508 727.811 657.908 716.011 651.808C704.211 645.708 689.111 637.909 682.511 634.409C673.011 629.409 670.411 627.708 670.211 625.808C670.011 624.508 670.511 623.208 671.211 622.808C671.911 622.408 673.211 622.008 674.011 622.008ZM410.511 627.909C411.011 627.909 412.111 628.608 412.711 629.508C413.411 630.308 413.911 631.708 413.711 632.608C413.611 633.508 404.611 639.408 393.011 646.108C381.711 652.708 372.311 658.008 372.011 658.008C371.711 658.008 369.511 659.208 367.011 660.808C364.511 662.408 359.811 665.208 356.511 667.008C353.211 668.808 348.511 671.608 346.011 673.108C343.211 674.708 340.811 675.508 339.711 675.108C338.711 674.808 337.711 673.608 337.411 672.508C337.111 671.409 337.411 670.008 338.211 669.409C338.911 668.708 342.011 666.909 345.011 665.208C348.011 663.609 354.311 660.008 359.011 657.208C363.711 654.508 372.411 649.409 378.511 645.909C384.511 642.508 394.011 637.008 399.511 633.808C405.011 630.608 409.911 628.008 410.511 627.909ZM662.911 638.409C664.611 638.309 668.411 640.208 673.511 643.808C677.911 646.808 686.411 652.708 692.511 656.808C698.511 660.908 704.111 665.008 704.811 665.909C705.511 666.809 706.011 667.808 706.011 668.308C706.011 668.708 705.311 669.708 704.511 670.508C703.611 671.409 702.311 671.708 701.211 671.308C700.311 671.008 696.911 668.908 693.711 666.808C690.611 664.708 687.511 663.208 687.011 663.508C686.411 663.808 686.111 663.508 686.211 662.909C686.411 662.309 681.811 658.609 676.011 654.708C670.211 650.708 664.411 646.708 663.011 645.708C661.411 644.609 660.511 642.909 660.411 641.208C660.411 639.008 660.811 638.508 662.911 638.409ZM924.711 641.008C926.311 641.008 930.911 641.909 935.011 643.008C939.111 644.108 957.311 648.408 975.511 652.608C993.611 656.708 1021.81 663.008 1038.01 666.608C1054.21 670.108 1070.91 673.808 1075.01 674.608C1079.31 675.508 1083.01 676.909 1083.71 677.909C1084.51 679.008 1084.61 680.108 1084.01 681.308C1083.41 682.208 1082.01 683.008 1080.71 683.008C1079.51 683.008 1067.21 680.608 1053.51 677.608C1039.71 674.608 1014.51 669.008 997.511 665.108C980.411 661.208 956.611 655.609 944.611 652.708C931.111 649.508 922.311 646.909 921.711 646.008C921.211 645.208 921.011 643.708 921.311 642.808C921.711 641.708 923.011 641.008 924.711 641.008ZM421.011 644.308C422.911 644.408 423.611 645.108 423.711 647.308C424.011 649.708 422.811 650.808 413.911 657.308C408.411 661.208 390.511 674.508 374.211 686.708C357.911 698.909 337.711 714.109 329.511 720.409C321.211 726.708 314.611 732.409 314.711 733.008C314.911 733.508 314.511 733.808 314.011 733.508C313.411 733.208 311.411 734.108 309.511 735.508C307.311 737.108 306.311 738.508 306.711 739.308C307.244 740.108 307.078 740.275 306.211 739.808C305.511 739.308 301.611 741.708 296.011 746.008C291.011 749.909 286.211 753.008 285.211 753.008C284.311 753.108 282.911 752.409 282.211 751.508C281.611 750.708 281.211 749.408 281.311 748.808C281.511 748.108 284.611 745.308 288.211 742.508C291.811 739.808 304.511 730.108 316.511 721.008C328.511 711.909 341.711 701.909 345.911 698.708C350.111 695.508 353.711 692.508 354.011 691.909C354.311 691.309 354.911 690.808 355.511 690.808C356.011 690.808 359.411 688.508 363.011 685.808C366.611 683.108 380.511 672.508 394.011 662.409C412.311 648.708 419.111 644.108 421.011 644.308ZM651.411 653.008C652.011 652.909 653.711 653.808 655.211 655.008C656.811 656.108 658.511 656.708 659.211 656.308C660.078 655.775 660.244 655.942 659.711 656.808C659.311 657.608 661.311 660.008 665.711 663.608C669.511 666.708 676.811 673.109 682.011 677.909C687.211 682.609 695.111 689.909 699.511 694.008C703.911 698.108 713.111 706.508 719.911 712.508C726.711 718.508 732.711 723.409 733.411 723.208C734.011 723.008 734.211 723.208 733.811 723.708C733.411 724.109 735.811 726.808 739.111 729.508C742.411 732.308 745.111 735.208 745.011 736.008C745.011 736.808 744.511 738.108 743.811 738.808C743.111 739.408 741.911 740.008 741.011 740.008C740.211 740.008 738.411 738.908 737.011 737.608C735.611 736.208 734.211 735.308 733.711 735.508C733.311 735.808 733.111 735.609 733.211 735.208C733.411 734.708 727.211 728.808 719.511 722.008C711.811 715.308 699.511 704.208 692.211 697.409C683.911 689.609 678.411 685.208 677.511 685.508C676.611 685.808 676.211 685.508 676.511 684.808C676.811 684.008 673.711 680.409 669.311 676.508C665.011 672.608 658.711 667.109 655.211 664.208C651.211 660.808 648.911 658.208 648.811 656.708C648.711 655.409 649.011 654.008 649.511 653.708C650.011 653.308 650.811 653.008 651.411 653.008ZM820.011 655.608C821.411 655.908 832.811 659.909 845.511 664.508C858.111 669.108 872.511 674.408 877.511 676.308C882.411 678.208 893.911 682.508 903.011 685.808C912.111 689.108 926.211 694.208 934.511 697.008C942.711 699.808 950.111 702.908 950.811 703.808C951.511 704.708 952.011 705.808 952.011 706.308C952.011 706.708 951.411 707.608 950.611 708.308C949.511 709.308 945.611 708.309 929.811 702.909C919.211 699.208 898.611 691.909 884.011 686.508C869.411 681.208 852.111 674.909 845.511 672.508C838.911 670.108 829.411 666.708 824.511 664.808C816.811 661.908 815.511 661.108 815.211 659.008C815.011 657.608 815.511 656.208 816.211 655.708C816.911 655.308 818.611 655.208 820.011 655.608ZM432.811 658.008C433.511 658.008 434.711 658.708 435.511 659.508C436.311 660.308 437.011 661.508 437.011 662.008C437.011 662.508 435.211 665.008 433.011 667.508C430.811 670.008 429.011 672.208 429.011 672.508C429.011 672.808 428.711 673.008 428.211 673.008C427.811 673.008 422.511 678.108 416.311 684.308C410.111 690.408 405.311 695.808 405.511 696.308C405.811 696.708 405.611 696.908 405.111 696.808C404.611 696.608 398.911 701.609 392.411 707.909C385.811 714.208 373.911 725.808 365.711 733.708C357.611 741.609 351.211 748.308 351.411 748.808C351.611 749.208 351.211 749.508 350.511 749.508C349.711 749.508 343.811 754.708 337.311 761.008C330.811 767.409 320.711 777.208 314.711 782.808C305.511 791.608 303.711 792.909 302.011 792.008C300.911 791.508 300.011 790.108 300.011 789.008C300.011 787.909 302.111 784.909 304.711 782.409C307.411 779.909 309.411 777.409 309.211 776.909C309.111 776.409 309.311 776.208 309.711 776.508C310.211 776.708 315.211 772.208 321.011 766.409C326.811 760.708 331.511 755.609 331.511 755.208C331.511 754.808 331.711 754.609 332.011 754.708C332.311 754.808 334.111 753.508 336.011 751.808C337.911 750.108 346.111 742.309 354.211 734.409C363.911 725.008 368.711 719.608 368.311 718.808C367.711 717.908 367.911 717.708 369.011 718.409C370.111 719.008 377.811 712.008 401.011 688.608C417.811 671.808 432.111 658.008 432.811 658.008ZM639.211 666.008C639.711 666.008 643.311 669.708 647.311 674.308C651.311 678.808 656.711 685.108 659.311 688.308C662.311 692.008 664.411 693.708 665.211 693.308C666.011 692.808 666.211 692.909 665.811 693.508C665.411 694.108 666.211 695.909 667.511 697.508C668.911 699.108 670.011 701.008 670.011 701.508C670.111 702.008 669.411 703.108 668.511 703.808C667.711 704.408 666.311 704.908 665.411 704.808C664.511 704.608 660.111 700.208 655.511 695.008C651.011 689.808 646.711 685.608 646.111 685.808C645.511 685.908 645.211 685.508 645.511 685.008C645.811 684.508 644.211 682.008 642.011 679.508C639.811 677.008 637.711 675.308 637.311 675.808C637.011 676.208 637.011 675.908 637.311 675.308C637.711 674.608 637.311 673.408 636.511 672.808C635.611 672.108 634.811 670.908 634.711 670.108C634.611 669.308 635.411 668.109 636.511 667.409C637.611 666.708 638.811 666.008 639.211 666.008ZM447.311 671.208C448.411 671.409 449.811 672.208 450.411 673.108C451.311 674.408 450.511 676.008 446.511 681.508C443.711 685.208 441.611 688.608 441.711 689.108C441.911 689.608 441.611 689.908 441.211 689.808C440.711 689.608 439.111 691.008 437.711 692.808C436.111 694.708 435.311 696.508 435.711 697.308C436.244 698.108 436.078 698.275 435.211 697.808C434.411 697.308 432.411 699.108 429.211 703.008C426.611 706.308 423.811 709.308 423.011 709.508C422.211 709.808 420.911 709.408 420.211 708.808C419.511 708.108 418.911 706.808 418.911 706.008C418.911 705.208 422.011 700.608 425.711 695.808C429.411 691.008 435.411 683.508 438.911 679.008C443.611 673.008 445.811 671.008 447.311 671.208ZM624.511 678.208C625.811 678.409 635.011 691.409 654.711 721.008C670.311 744.409 683.011 763.808 683.011 764.308C683.011 764.708 682.311 765.708 681.411 766.508C680.611 767.308 679.611 768.008 679.211 768.008C678.811 768.008 677.811 767.508 676.911 766.808C676.011 766.108 662.911 746.708 647.611 723.808C632.411 700.808 619.911 681.609 619.811 681.208C619.711 680.808 620.211 679.808 621.011 679.208C621.811 678.508 623.411 678.109 624.511 678.208ZM235.411 681.308C236.411 681.408 237.811 682.308 238.411 683.208C239.211 684.609 239.111 685.308 238.011 686.508C237.211 687.308 227.911 691.608 217.511 696.008C207.011 700.508 190.811 707.308 181.511 711.108C172.111 715.008 162.711 719.008 160.511 720.008C158.311 721.008 149.711 724.608 141.511 728.008C131.711 732.008 125.711 733.908 124.211 733.608C123.011 733.208 122.011 732.208 122.011 731.308C122.011 730.308 122.411 729.008 122.811 728.409C123.211 727.909 125.711 726.508 128.511 725.308C131.211 724.208 150.411 716.108 171.011 707.508C191.611 698.808 214.111 689.309 221.011 686.409C227.911 683.409 234.411 681.108 235.411 681.308ZM462.911 682.208C464.611 682.409 465.611 683.208 465.811 684.508C466.011 685.708 462.311 692.909 456.911 702.008C451.911 710.508 446.911 718.608 446.011 720.008C445.111 721.409 443.111 724.508 441.811 727.008C440.411 729.508 436.211 736.508 432.511 742.508C428.811 748.508 422.311 759.208 418.111 766.208C413.911 773.208 409.711 779.208 408.711 779.508C407.811 779.808 406.311 779.408 405.511 778.808C404.611 778.108 403.911 776.908 404.011 776.308C404.011 775.608 407.811 768.708 412.511 761.008C417.611 752.608 420.711 746.508 420.311 745.808C419.778 744.942 419.944 744.775 420.811 745.308C421.611 745.808 426.211 739.008 435.611 723.308C443.111 710.708 451.811 696.308 454.811 691.208C459.711 682.909 460.611 681.909 462.911 682.208ZM608.011 687.208C608.911 687.409 615.111 698.608 622.811 714.008C630.211 728.608 646.911 761.708 660.011 787.508C673.111 813.409 689.211 845.408 695.911 858.808C702.611 872.108 708.411 882.808 709.011 882.508C709.511 882.208 709.811 882.608 709.511 883.308C709.211 883.908 713.011 892.808 718.011 903.008C723.911 914.909 727.011 922.409 726.811 924.008C726.611 925.909 725.911 926.508 724.011 926.508C721.911 926.508 720.911 925.108 716.311 915.808C713.411 909.808 710.511 905.208 710.011 905.508C709.411 905.808 709.211 905.308 709.511 904.508C709.811 903.708 699.811 882.908 687.311 858.308C674.911 833.608 651.011 786.408 634.311 753.308C617.711 720.108 603.911 692.208 603.811 691.208C603.711 690.208 604.211 688.808 605.011 688.208C605.811 687.508 607.111 687.109 608.011 687.208ZM304.711 688.108C304.911 688.008 305.911 688.508 307.011 689.008C308.111 689.508 309.011 690.808 309.011 691.808C309.111 692.708 308.311 694.208 307.311 695.108C306.311 696.008 299.811 700.108 292.811 704.108C285.511 708.308 280.411 711.909 280.811 712.508C281.211 713.108 281.011 713.208 280.211 712.808C279.511 712.308 276.011 713.708 271.711 716.108C267.811 718.408 262.011 721.708 259.011 723.508C256.011 725.308 248.811 729.308 243.011 732.508C237.211 735.708 216.111 747.708 196.011 759.108C175.911 770.508 153.911 783.008 147.011 787.008C140.111 791.008 133.811 794.808 133.011 795.608C132.211 796.308 131.211 797.008 130.711 797.008C130.311 797.008 124.711 800.208 118.211 804.108C109.611 809.308 105.911 811.008 104.211 810.608C102.711 810.208 102.011 809.308 102.011 807.508C102.011 805.308 104.711 803.408 123.711 792.108C135.711 785.008 158.111 772.008 173.511 763.308C188.911 754.508 206.611 744.508 212.711 741.208C220.511 736.909 223.811 734.608 223.311 733.808C222.778 732.942 222.944 732.775 223.811 733.308C224.511 733.708 229.811 731.309 236.711 727.409C243.211 723.809 250.111 719.908 252.011 718.808C253.911 717.708 259.511 714.508 264.511 711.708C269.411 708.909 276.911 704.609 281.011 702.208C285.111 699.708 290.511 696.609 293.011 695.208C295.511 693.808 299.111 691.708 301.011 690.409C302.911 689.109 304.611 688.108 304.711 688.108ZM738.711 689.008C738.911 689.008 749.511 696.008 762.211 704.608C775.011 713.208 786.011 720.309 786.711 720.409C787.311 720.409 787.611 720.808 787.411 721.308C787.211 721.708 789.411 723.409 792.211 725.208C795.111 727.008 800.611 730.808 804.511 733.708C808.311 736.609 812.111 739.008 812.711 739.008C813.411 739.008 814.111 739.408 814.211 739.808C814.411 740.208 819.711 744.208 826.011 748.608C832.311 753.008 842.711 760.208 849.011 764.508C855.311 768.909 862.211 773.608 864.311 775.008C866.411 776.409 868.011 778.208 868.011 779.008C868.011 779.808 867.511 781.108 866.811 781.808C866.111 782.408 865.011 783.008 864.311 783.008C863.611 783.008 858.211 779.808 852.211 775.808C846.311 771.808 834.711 763.908 826.511 758.108C818.211 752.408 810.411 746.808 809.011 745.708C807.344 744.442 806.011 744.075 805.011 744.608C804.111 745.208 803.811 745.108 804.211 744.508C804.611 743.909 801.511 741.008 797.211 737.808C793.011 734.708 781.811 726.908 772.311 720.308C762.911 713.808 750.611 705.508 745.111 701.808C738.511 697.408 734.911 694.308 734.811 693.008C734.711 692.008 735.511 690.608 736.611 690.108C737.611 689.508 738.611 689.008 738.711 689.008ZM481.211 691.108C482.211 691.608 483.111 692.608 483.111 693.308C483.111 694.008 480.611 699.708 477.711 706.008C474.711 712.308 468.111 727.308 462.911 739.308C457.711 751.208 452.911 761.308 452.211 761.508C451.611 761.808 450.311 761.708 449.511 761.308C448.611 760.808 447.711 759.808 447.411 759.008C447.211 758.208 451.311 747.409 456.611 735.008C462.011 722.608 468.511 708.008 471.211 702.508C473.911 697.008 476.811 692.008 477.611 691.308C478.711 690.408 479.811 690.408 481.211 691.108ZM589.811 695.008C590.711 694.909 592.011 695.508 592.611 696.208C593.211 696.909 598.011 709.708 603.211 724.508C608.511 739.409 614.511 756.308 616.611 762.208C620.111 771.808 620.311 773.108 619.011 774.508C618.211 775.409 616.611 776.008 615.511 775.808C614.111 775.608 612.711 773.008 609.911 765.508C607.811 760.008 601.611 742.708 596.111 727.008C588.511 705.508 586.311 698.108 587.111 696.808C587.611 695.808 588.811 695.008 589.811 695.008ZM496.911 697.008C497.811 696.909 499.111 697.609 499.811 698.409C500.911 699.609 500.711 701.308 498.711 708.208C497.311 712.708 493.311 726.208 489.711 738.008C486.111 749.808 478.411 775.708 472.511 795.508C466.611 815.308 460.311 836.708 458.411 843.008C456.511 849.308 453.811 858.108 452.511 862.508C451.211 866.909 448.811 875.008 447.111 880.508C445.411 886.008 441.211 899.808 437.811 911.208C433.811 924.508 431.011 932.208 430.011 932.508C429.211 932.808 427.711 932.808 426.711 932.508C425.811 932.208 425.011 931.109 425.111 929.909C425.111 928.809 426.711 922.609 428.611 916.208C430.611 909.808 435.011 894.808 438.611 883.008C442.111 871.208 445.911 858.808 446.911 855.508C448.011 852.208 450.911 842.508 453.411 834.008C455.911 825.508 461.511 806.608 465.811 792.008C470.211 777.409 478.111 750.708 483.511 732.508C488.911 714.409 493.811 698.908 494.311 698.308C494.811 697.608 496.011 697.008 496.911 697.008ZM571.911 700.008C572.811 699.909 574.011 700.508 574.611 701.208C575.211 701.909 576.911 708.108 578.411 715.008C579.811 721.909 582.211 732.208 583.511 738.008C584.911 743.808 589.211 763.808 593.011 782.508C596.911 801.208 601.211 821.708 602.611 828.008C604.011 834.308 605.211 841.508 605.311 844.008C605.511 848.409 605.411 848.508 602.611 848.508C600.011 848.508 599.511 848.008 598.711 845.008C598.211 843.108 593.611 821.308 588.411 796.508C583.211 771.808 577.311 744.308 575.411 735.508C573.411 726.708 570.911 715.808 569.711 711.308C567.811 704.408 567.711 702.908 568.911 701.608C569.611 700.708 571.011 700.008 571.911 700.008ZM824.411 700.008C825.611 700.008 828.511 701.008 831.011 702.308C833.511 703.608 848.811 711.508 865.011 719.808C881.211 728.108 901.211 738.508 909.511 742.909C922.011 749.508 924.511 751.208 924.511 753.008C924.511 754.308 923.811 755.708 923.011 756.308C921.911 757.008 916.911 754.908 903.011 747.808C892.811 742.508 879.811 735.808 874.011 732.808C868.211 729.808 853.911 722.409 842.211 716.409C825.311 707.708 820.911 705.109 820.811 703.409C820.711 702.309 821.011 701.008 821.511 700.708C822.011 700.308 823.311 700.008 824.411 700.008ZM515.411 701.008C516.011 700.909 517.211 701.708 518.011 702.608C519.311 704.008 519.211 706.109 516.511 721.708C514.211 735.409 513.111 739.408 511.711 740.108C510.811 740.608 509.311 740.808 508.511 740.508C507.511 740.208 507.011 738.708 507.011 736.308C507.011 734.208 508.111 726.008 509.611 718.008C511.011 710.008 512.611 702.908 513.211 702.308C513.711 701.608 514.711 701.008 515.411 701.008ZM534.511 703.008C535.011 702.909 536.111 703.508 536.811 704.208C537.811 705.308 537.911 711.108 537.111 735.008C536.511 751.208 534.611 798.909 532.911 841.008C530.811 889.608 529.311 918.008 528.611 918.808C528.011 919.508 526.811 920.108 526.011 920.108C525.211 920.108 524.011 919.508 523.311 918.808C522.511 917.808 522.611 906.808 524.111 873.008C525.111 848.508 526.411 818.208 526.911 805.508C527.511 792.909 528.411 769.708 529.011 754.008C529.511 738.308 530.211 720.808 530.411 715.108C530.711 707.808 531.211 704.408 532.211 703.808C532.911 703.408 533.911 703.008 534.511 703.008ZM552.811 703.008C553.711 702.909 555.011 703.508 555.611 704.208C556.211 704.909 557.311 712.308 557.911 720.508C558.611 728.808 559.811 741.108 560.611 748.008C561.411 754.909 562.411 765.708 562.811 772.108C563.511 783.608 563.511 783.708 561.211 784.409C560.011 784.708 558.411 784.608 557.711 784.108C557.011 783.608 556.211 779.508 555.711 774.409C555.311 769.508 554.311 758.808 553.411 750.508C552.611 742.308 551.311 729.008 550.611 721.008C549.811 712.208 549.611 705.808 550.211 704.808C550.711 703.808 551.811 703.008 552.811 703.008ZM987.411 716.008C988.011 716.108 997.711 719.508 1009.01 723.808C1028.51 731.108 1029.51 731.608 1029.71 734.308C1029.91 736.208 1029.51 737.208 1028.21 737.508C1027.31 737.808 1023.31 736.908 1019.51 735.608C1015.61 734.308 1006.61 731.108 999.511 728.508C992.311 725.808 985.911 723.208 985.211 722.608C984.511 722.008 983.811 720.808 983.811 720.008C983.711 719.108 984.211 717.909 985.011 717.208C985.811 716.508 986.911 716.008 987.411 716.008ZM694.911 731.008C695.811 730.909 698.311 732.808 700.511 735.208C702.711 737.609 704.911 739.409 705.511 739.208C706.011 739.008 706.211 739.208 705.811 739.708C705.411 740.109 707.411 743.208 710.311 746.508C713.111 749.708 726.911 765.508 740.911 781.508C754.811 797.409 768.611 813.308 771.611 816.808C775.111 820.808 777.411 822.708 778.211 822.308C779.078 821.775 779.244 821.942 778.711 822.808C778.311 823.608 784.211 831.108 795.211 843.808C804.711 854.608 812.911 864.008 813.511 864.608C814.011 865.208 821.011 873.208 829.011 882.508C839.711 894.909 843.511 899.909 843.511 901.909C843.511 904.008 843.011 904.508 840.911 904.508C839.011 904.508 836.711 902.508 831.011 896.008C826.911 891.308 819.111 882.308 813.511 876.008C808.011 869.708 801.911 862.808 800.011 860.808C798.111 858.708 796.211 857.308 795.711 857.508C795.311 857.808 794.711 857.408 794.311 856.808C793.778 855.942 793.944 855.775 794.811 856.308C795.411 856.708 796.011 856.708 796.011 856.308C796.011 855.808 794.611 854.008 792.811 852.208C791.011 850.409 789.111 849.308 788.611 849.708C788.111 850.208 788.011 849.908 788.311 849.308C788.711 848.508 784.811 843.108 778.411 835.808C772.511 829.008 765.411 820.808 762.511 817.508C759.611 814.208 748.811 801.808 738.511 790.008C728.111 778.208 719.311 768.608 718.811 768.808C718.411 768.908 718.211 768.708 718.411 768.308C718.611 767.808 712.811 760.508 705.411 752.008C698.011 743.508 691.911 735.609 691.811 734.409C691.711 733.309 692.011 732.008 692.511 731.708C693.011 731.308 694.011 731.008 694.911 731.008ZM396.511 736.208C397.811 736.409 398.611 737.409 398.811 739.008C399.011 740.808 397.211 743.808 392.211 750.008C388.411 754.708 371.211 776.308 353.911 798.008C336.611 819.708 317.611 843.608 311.811 851.008C305.911 858.409 301.311 864.808 301.611 865.308C301.811 865.708 301.611 865.908 301.111 865.808C300.611 865.608 295.011 872.108 288.611 880.308C278.511 893.108 277.211 895.208 278.211 896.808C279.411 898.308 279.311 898.408 277.711 897.308C276.211 896.208 275.511 896.608 272.211 901.008C270.211 903.708 267.711 907.108 266.711 908.508C265.811 909.909 264.211 911.008 263.211 911.008C262.311 911.008 260.911 910.508 260.211 909.808C259.511 909.108 259.011 908.008 259.011 907.508C258.911 907.008 261.211 903.608 263.911 900.008C266.611 896.409 272.011 889.508 275.911 884.508C279.711 879.508 282.611 875.008 282.211 874.508C281.811 874.008 282.011 873.808 282.511 874.208C283.111 874.609 284.611 873.508 285.911 871.708C287.211 869.909 292.511 863.208 297.711 856.808C303.511 849.408 306.711 844.508 306.311 843.808C305.778 842.942 305.944 842.775 306.811 843.308C307.611 843.708 310.111 841.409 314.011 836.508C317.311 832.409 319.811 828.508 319.511 828.008C319.211 827.508 319.411 827.108 319.811 827.308C320.311 827.408 321.911 826.008 323.311 824.308C324.911 822.308 325.711 820.508 325.311 819.808C324.811 819.008 324.911 818.808 325.511 819.208C326.111 819.609 328.111 818.008 330.111 815.708C332.011 813.409 339.111 804.608 345.811 796.308C353.511 786.608 357.711 780.508 357.211 779.808C356.811 779.008 356.911 778.808 357.511 779.208C358.111 779.609 365.311 771.508 373.911 760.708C382.411 750.109 390.511 740.208 391.911 738.708C393.411 737.008 395.311 736.008 396.511 736.208ZM88.2109 743.008C90.3109 743.008 91.2109 743.608 91.6109 745.308C91.9109 746.608 91.6109 748.008 90.8109 748.608C90.1109 749.208 80.7109 753.409 70.0109 757.909C59.3109 762.409 49.6109 766.008 48.6109 765.808C47.6109 765.608 46.2109 764.708 45.6109 763.808C44.8109 762.408 44.9109 761.708 46.0109 760.608C46.8109 759.708 54.5109 756.208 63.0109 752.608C71.5109 749.108 80.1109 745.508 82.0109 744.608C83.9109 743.808 86.7109 743.108 88.2109 743.008ZM774.711 762.108C775.411 762.008 778.711 764.508 782.011 767.508C785.511 770.708 788.511 772.708 789.211 772.308C789.911 772.008 790.211 772.108 789.711 772.608C789.311 773.108 790.011 774.508 791.211 775.808C792.511 777.008 793.811 778.008 794.211 778.008C794.711 778.008 794.711 777.408 794.311 776.808C793.778 775.942 793.944 775.775 794.811 776.308C795.411 776.708 795.811 777.508 795.511 778.008C795.211 778.508 798.911 782.508 803.711 786.808C808.611 791.108 817.911 799.308 824.511 805.108C831.111 810.908 838.311 817.208 840.411 819.108C842.611 821.008 846.611 824.408 849.211 826.808C852.211 829.408 854.511 830.708 855.211 830.308C856.078 829.775 856.244 829.942 855.711 830.808C855.311 831.508 856.711 833.608 859.611 836.308C862.211 838.608 865.011 840.508 865.911 840.508C866.811 840.608 867.411 841.008 867.311 841.508C867.111 842.108 874.111 848.808 882.711 856.508C891.311 864.208 902.711 874.308 908.011 879.008C913.211 883.608 922.911 892.409 929.511 898.409C936.111 904.409 942.311 910.208 943.311 911.409C944.311 912.508 945.111 913.808 945.011 914.308C945.011 914.708 944.311 915.708 943.411 916.508C942.611 917.308 941.411 918.008 940.911 918.008C940.411 918.008 935.311 913.708 929.511 908.508C922.811 902.409 918.611 899.308 917.811 899.808C916.944 900.275 916.778 900.108 917.311 899.308C917.711 898.408 914.511 894.909 908.011 889.008C902.511 884.008 897.511 880.208 897.011 880.508C896.411 880.808 896.111 880.508 896.211 879.909C896.411 879.309 893.111 875.808 889.011 872.208C884.911 868.609 877.211 861.808 872.011 857.008C866.811 852.208 859.011 845.308 854.711 841.708C850.511 838.008 846.411 835.108 845.711 835.308C845.111 835.408 844.611 834.908 844.711 834.308C844.911 833.608 841.011 829.508 836.111 825.308C831.311 821.008 819.911 811.008 810.911 803.108C801.911 795.108 790.111 784.708 784.711 779.808C779.411 775.008 774.511 771.108 773.811 771.308C773.111 771.408 772.611 771.008 772.511 770.308C772.511 769.708 772.111 768.808 771.711 768.308C771.311 767.908 770.911 766.508 770.811 765.308C770.711 764.108 771.311 762.909 772.011 762.708C772.811 762.409 774.111 762.108 774.711 762.108ZM959.811 769.008C960.211 769.008 969.711 774.008 981.011 780.108C992.311 786.108 1009.11 794.908 1018.51 799.608C1027.81 804.208 1035.91 808.408 1036.31 808.808C1036.81 809.208 1036.91 810.508 1036.61 811.808C1036.21 813.308 1035.31 814.008 1033.51 814.008C1032.11 814.008 1025.91 811.609 1019.71 808.708C1013.61 805.708 1002.91 800.208 996.011 796.508C989.111 792.708 978.211 786.908 971.811 783.608C965.411 780.208 959.211 776.708 958.111 775.808C956.911 774.808 956.011 773.608 955.911 773.108C955.911 772.608 956.611 771.408 957.511 770.608C958.411 769.708 959.411 769.008 959.811 769.008ZM251.511 772.208C252.811 772.409 253.611 773.409 253.811 775.008C254.011 776.909 253.011 778.308 250.311 780.608C248.211 782.308 234.311 792.808 219.511 804.008C204.611 815.208 189.811 826.409 186.611 828.909C183.311 831.508 175.611 837.408 169.611 842.308C163.011 847.508 157.611 851.008 156.211 851.008C154.811 851.008 153.811 850.208 153.411 848.808C152.911 847.008 153.611 845.808 156.711 843.008C158.911 841.108 164.511 836.608 169.111 833.108C173.711 829.508 177.911 826.308 178.511 825.808C179.011 825.408 180.811 824.008 182.511 822.708C184.111 821.409 196.711 811.809 210.511 801.409C224.211 791.109 238.611 780.208 242.511 777.308C246.611 774.108 250.311 772.109 251.511 772.208ZM502.711 776.008C503.711 775.909 505.011 776.508 505.711 777.208C506.711 778.208 505.811 785.708 501.411 812.508C498.411 831.208 495.511 847.508 495.011 848.808C494.311 850.208 493.111 851.008 491.511 851.008C490.011 851.008 488.811 850.308 488.511 849.308C488.211 848.308 490.411 832.409 493.511 814.008C496.611 795.608 499.511 779.508 500.011 778.308C500.511 777.008 501.811 776.008 502.711 776.008ZM435.211 794.208C436.311 794.708 437.111 795.808 437.111 796.808C437.011 797.708 433.611 805.909 429.411 815.008C425.211 824.108 414.511 847.909 405.611 868.008C396.611 888.108 386.711 910.608 383.511 918.008C380.311 925.409 377.011 932.008 376.111 932.708C375.211 933.308 373.711 933.708 372.711 933.409C371.711 933.208 371.011 932.108 371.011 930.508C371.011 929.108 375.711 917.308 381.411 904.308C387.111 891.208 396.311 870.409 401.811 858.008C407.311 845.608 414.511 829.708 417.811 822.508C421.111 815.409 425.411 806.109 427.311 801.909C429.311 797.708 431.511 794.008 432.111 793.708C432.811 793.508 434.211 793.708 435.211 794.208ZM704.111 797.008C705.411 797.008 707.811 799.808 711.711 805.808C714.811 810.608 724.311 825.008 732.911 837.808C741.511 850.708 750.511 864.308 753.011 868.108C755.511 871.808 763.511 883.808 770.911 894.708C778.311 905.609 787.311 918.808 790.811 924.008C794.411 929.208 802.811 941.608 809.511 951.508C816.211 961.409 828.011 979.108 835.811 990.808C843.611 1002.41 850.011 1012.61 850.011 1013.31C850.111 1013.91 849.411 1015.11 848.511 1015.81C847.711 1016.41 846.211 1016.81 845.211 1016.51C844.311 1016.21 836.411 1005.31 827.811 992.208C819.111 979.208 804.911 958.008 796.311 945.208C787.611 932.508 773.111 911.008 764.011 897.608C754.911 884.208 747.111 873.508 746.511 873.909C745.911 874.208 745.811 874.008 746.311 873.308C746.711 872.608 746.411 871.208 745.611 870.308C744.811 869.308 734.711 854.208 723.111 836.808C711.511 819.308 701.411 803.909 700.711 802.508C699.711 800.608 699.811 799.808 700.911 798.508C701.611 797.708 703.111 797.008 704.111 797.008ZM900.111 800.008C900.611 800.008 902.711 801.308 904.711 802.808C906.811 804.408 917.511 811.609 928.511 818.909C939.511 826.309 950.211 833.708 952.311 835.409C954.811 837.409 956.111 839.208 955.811 840.409C955.711 841.409 954.711 842.809 953.811 843.409C952.411 844.309 951.511 844.008 949.311 842.308C947.811 841.108 939.711 835.608 931.511 830.108C923.211 824.608 912.711 817.508 908.111 814.308C903.411 811.108 898.811 807.708 897.811 806.808C896.811 805.808 896.011 804.608 895.911 804.108C895.911 803.608 896.611 802.408 897.511 801.608C898.411 800.708 899.611 800.008 900.111 800.008ZM386.411 808.308C386.811 808.408 387.811 809.409 388.611 810.508C389.811 812.308 389.311 813.608 382.611 824.508C378.611 831.108 373.111 840.208 370.411 844.708C367.711 849.308 362.111 858.608 358.011 865.508C353.911 872.308 349.911 878.208 349.211 878.508C348.611 878.808 347.311 878.708 346.511 878.308C345.611 877.808 344.711 876.808 344.411 876.008C344.211 875.208 346.611 870.008 349.811 864.508C353.111 859.008 360.711 846.308 366.911 836.308C373.011 826.208 378.011 817.808 378.011 817.508C378.011 817.208 379.211 815.308 380.611 813.308C382.011 811.208 383.711 809.208 384.311 808.808C385.011 808.408 385.911 808.108 386.411 808.308ZM631.311 810.208C632.611 810.409 634.011 812.608 636.011 818.008C637.611 822.108 643.311 838.308 648.811 854.008C654.311 869.708 665.611 901.909 673.911 925.508C682.211 949.208 689.011 969.708 689.011 971.308C689.011 973.608 688.611 974.008 686.011 974.008C684.011 974.008 682.811 973.408 682.411 972.308C682.111 971.308 679.011 962.409 675.511 952.508C672.111 942.608 665.011 922.409 659.711 907.508C654.511 892.708 646.111 868.808 641.011 854.508C636.011 840.208 630.711 825.008 629.211 820.808C626.911 814.108 626.711 812.909 627.911 811.508C628.711 810.608 630.211 810.008 631.311 810.208ZM273.411 814.008C274.011 814.008 275.111 814.408 275.811 814.808C276.511 815.208 277.011 816.508 276.811 817.708C276.611 819.008 258.911 837.208 231.711 863.909C202.811 892.409 186.311 908.008 185.011 908.008C183.911 908.008 182.511 907.008 181.911 905.808C180.811 903.708 182.911 901.409 211.111 873.708C227.811 857.208 248.411 837.109 256.911 828.909C265.311 820.708 272.711 814.008 273.411 814.008ZM563.511 820.008C564.011 820.008 565.011 820.508 565.711 821.208C566.411 821.909 567.411 827.909 568.011 834.508C568.511 841.108 570.611 863.409 572.511 884.008C574.411 904.608 576.411 926.708 577.011 933.008C577.511 939.308 578.511 951.008 579.211 959.008C579.811 967.008 580.011 974.308 579.711 975.308C579.211 976.408 578.111 976.908 576.211 976.808C573.611 976.508 573.511 976.208 572.811 969.508C572.411 965.708 570.711 947.208 569.011 928.508C567.411 909.808 564.711 879.909 563.011 862.008C561.411 844.108 559.911 827.608 559.811 825.308C559.711 822.508 560.011 821.008 561.011 820.708C561.811 820.409 562.911 820.108 563.511 820.008ZM124.011 869.008C124.811 869.008 126.111 869.508 126.811 870.208C127.511 870.909 128.011 872.108 128.011 872.808C128.011 873.408 122.311 878.308 115.211 883.608C108.211 888.908 101.511 893.908 100.211 894.608C98.4109 895.708 97.7109 895.808 96.5109 894.808C95.6109 894.108 94.9109 892.608 95.0109 891.508C95.0109 890.108 99.5109 886.208 108.811 879.308C116.311 873.608 123.211 869.008 124.011 869.008ZM612.011 884.008C612.311 884.008 613.011 884.408 613.711 884.808C614.311 885.208 615.311 887.508 615.911 890.008C616.511 892.508 618.811 902.808 621.011 913.008C623.211 923.208 625.011 932.708 625.011 934.308C625.011 936.308 624.411 937.208 622.711 937.608C621.511 937.908 620.011 937.608 619.311 936.808C618.711 936.108 617.011 930.308 615.611 924.008C614.211 917.708 611.911 906.708 610.411 899.508C607.911 887.008 607.811 886.508 609.611 885.308C610.611 884.608 611.711 884.008 612.011 884.008ZM484.811 886.008C485.211 885.909 486.211 886.708 487.011 887.608C488.211 888.908 488.311 890.508 487.711 895.409C487.211 898.708 484.011 918.808 480.411 940.008C476.911 961.208 472.011 990.008 469.611 1004.01C467.111 1018.01 463.211 1040.51 461.011 1054.01C458.711 1067.51 456.211 1079.21 455.411 1080.01C454.611 1080.91 453.511 1081.21 452.511 1080.81C451.711 1080.31 450.711 1079.21 450.311 1078.31C450.011 1077.31 450.911 1069.11 452.411 1060.01C453.911 1050.91 458.911 1021.91 463.511 995.508C468.111 969.108 473.211 939.208 474.811 929.008C476.511 918.808 478.711 905.608 479.711 899.508C480.711 893.508 482.111 888.008 482.811 887.308C483.511 886.608 484.411 886.008 484.811 886.008ZM326.711 907.008C327.411 907.008 328.511 908.008 329.111 909.308C330.111 911.108 329.911 912.108 328.311 914.508C327.211 916.208 323.611 922.008 320.311 927.508C317.011 933.008 309.011 946.508 302.511 957.508C296.111 968.508 289.611 979.208 288.111 981.308C286.111 984.308 285.011 985.108 283.011 984.808C281.311 984.608 280.411 983.808 280.211 982.308C280.111 980.908 282.411 976.308 285.911 970.808C289.111 965.708 293.811 958.008 296.411 953.808C298.911 949.508 301.011 945.808 301.011 945.508C301.011 945.208 306.011 936.808 312.111 926.808C318.211 916.708 323.711 908.208 324.311 907.808C325.011 907.408 326.111 907.008 326.711 907.008ZM869.411 931.008C870.011 931.008 871.411 931.708 872.511 932.708C873.611 933.708 877.911 938.208 882.011 942.708C886.211 947.308 889.911 950.609 890.511 950.208C891.111 949.808 891.211 950.008 890.711 950.808C890.311 951.508 891.911 954.308 895.011 958.008C898.211 961.909 900.411 963.708 901.211 963.308C902.078 962.775 902.244 962.942 901.711 963.808C901.311 964.508 901.911 966.008 903.211 967.508C904.511 968.808 905.911 969.609 906.511 969.208C907.111 968.808 907.211 969.108 906.611 970.008C906.011 971.108 906.911 972.608 909.811 975.508C912.011 977.708 914.311 980.508 914.911 981.808C915.711 983.508 915.711 984.409 914.711 985.508C914.111 986.409 912.711 987.108 911.711 987.008C910.811 987.008 907.411 983.908 904.211 980.108C901.111 976.308 897.911 973.308 897.211 973.608C896.611 973.808 896.211 973.508 896.511 973.008C896.811 972.508 891.211 965.108 884.111 956.808C877.011 948.408 870.011 940.409 868.611 939.008C867.111 937.608 865.911 935.808 865.811 935.008C865.711 934.108 866.211 932.909 867.011 932.208C867.811 931.508 868.911 931.008 869.411 931.008ZM236.711 937.008C238.211 937.008 239.211 937.708 239.611 939.308C240.111 941.008 238.711 943.409 233.711 950.008C230.111 954.708 222.311 964.608 216.311 972.008C207.911 982.608 205.011 985.508 203.111 985.508C201.811 985.508 200.211 984.808 199.611 983.808C198.711 982.508 199.211 981.308 202.211 977.608C204.311 975.108 205.811 972.508 205.511 972.008C205.211 971.508 205.411 971.108 206.011 971.308C206.511 971.408 210.611 967.008 215.211 961.409C219.811 955.909 225.911 948.109 228.911 944.208C232.911 938.909 235.011 937.008 236.711 937.008ZM524.511 955.008C525.011 954.909 526.111 955.508 526.811 956.208C527.911 957.308 527.911 962.208 527.011 982.508C526.511 996.308 525.511 1020.11 524.811 1035.51C524.111 1052.61 523.311 1064.01 522.611 1064.81C522.011 1065.51 520.711 1066.11 519.711 1066.01C518.811 1066.01 517.711 1065.41 517.311 1064.81C516.911 1064.11 516.711 1058.51 516.811 1052.51C516.911 1046.51 517.511 1031.41 518.011 1019.01C518.611 1006.61 519.411 987.508 519.911 976.608C520.611 961.508 521.111 956.408 522.111 955.808C522.911 955.408 523.911 955.008 524.511 955.008ZM743.511 959.008C745.011 959.008 746.411 959.808 747.011 961.008C747.611 962.208 748.511 962.708 749.211 962.308C750.078 961.775 750.244 961.942 749.711 962.808C749.311 963.508 754.311 974.808 761.911 990.308C769.911 1006.81 774.511 1017.11 774.111 1018.21C773.811 1019.21 772.811 1020.11 772.011 1020.31C771.211 1020.51 769.911 1020.51 769.211 1020.31C768.611 1020.21 763.511 1010.81 758.011 999.508C752.511 988.208 748.011 978.808 748.011 978.508C748.011 978.208 746.211 974.708 743.911 970.808C741.011 965.608 740.011 962.808 740.411 961.308C740.811 959.708 741.811 959.008 743.511 959.008ZM357.711 965.008C359.211 965.008 360.211 965.708 360.511 967.008C360.811 968.208 356.611 979.008 349.611 994.808C343.411 1008.91 335.211 1027.61 331.411 1036.31C326.911 1046.51 323.911 1052.21 322.711 1052.51C321.811 1052.81 320.311 1052.41 319.511 1051.81C318.611 1051.11 317.911 1050.01 317.911 1049.51C318.011 1049.01 321.611 1040.21 326.111 1030.01C330.511 1019.81 337.311 1004.31 341.211 995.508C345.111 986.708 349.311 977.208 350.611 974.409C351.811 971.609 352.811 968.909 352.711 968.409C352.711 967.809 353.211 966.909 354.011 966.208C354.811 965.508 356.411 965.008 357.711 965.008ZM415.811 967.008C416.711 966.909 418.111 967.609 418.711 968.409C419.711 969.609 418.311 975.409 411.311 998.708C406.611 1014.51 402.011 1030.01 401.111 1033.01C399.511 1038.01 399.111 1038.51 396.511 1038.51C394.311 1038.51 393.411 1038.01 393.211 1036.51C393.011 1035.41 397.211 1020.11 402.511 1002.51C407.911 984.909 412.611 969.708 413.111 968.808C413.611 967.808 414.811 967.008 415.811 967.008ZM631.711 973.008C633.311 973.008 634.211 973.708 634.511 975.308C634.811 976.508 636.611 984.708 638.511 993.508C640.511 1002.31 644.211 1019.81 646.911 1032.51C649.711 1045.21 652.611 1059.31 653.511 1064.01C654.411 1068.71 654.911 1073.11 654.611 1073.81C654.311 1074.41 652.911 1075.01 651.511 1075.01C650.111 1075.01 648.811 1074.71 648.611 1074.31C648.311 1073.81 644.511 1056.21 639.911 1035.01C635.411 1013.81 630.911 992.909 629.911 988.508C628.911 984.108 628.011 979.109 627.911 977.409C627.811 975.708 628.011 974.008 628.511 973.708C629.011 973.308 630.411 973.008 631.711 973.008ZM701.111 1010.01C702.311 1010.01 703.611 1011.31 704.611 1013.81C705.511 1015.81 708.011 1022.51 710.211 1028.51C712.411 1034.61 715.011 1042.01 716.011 1045.01C717.011 1048.01 719.711 1055.71 722.011 1062.01C724.311 1068.31 726.811 1075.51 727.611 1078.01C728.511 1080.51 729.011 1083.41 728.811 1084.51C728.611 1085.91 727.711 1086.51 726.011 1086.51C724.411 1086.51 723.111 1085.61 722.311 1084.01C721.611 1082.61 719.011 1075.91 716.611 1069.01C714.111 1062.11 708.711 1046.71 704.611 1034.81C698.711 1017.91 697.211 1012.71 698.111 1011.51C698.711 1010.71 700.111 1010.01 701.111 1010.01Z" fill="#3B3E4F"/>
</svg>
